<svg width="64" height="64" viewBox="0 0 64 64" fill="none" xmlns="http://www.w3.org/2000/svg">
<path d="M32.4535 37.9467C33.9201 37.9467 35.1201 36.7467 35.1201 35.28C35.1201 33.8133 33.9201 32.6133 32.4535 32.6133C31.7335 32.6133 31.0667 32.88 30.5601 33.3867C30.0534 33.8933 29.7868 34.56 29.7868 35.28C29.7868 36.7467 30.9868 37.9467 32.4535 37.9467Z" fill="#0C8DC0"/>
<path d="M32.4535 48.6133C33.9201 48.6133 35.1201 47.4133 35.1201 45.9467C35.1201 44.48 33.9201 43.28 32.4535 43.28C31.7335 43.28 31.0667 43.5467 30.5601 44.0533C30.0534 44.56 29.7868 45.2267 29.7868 45.9467C29.7868 47.4133 30.9868 48.6133 32.4535 48.6133Z" fill="#0C8DC0"/>
<path d="M45.7868 37.9467C47.2535 37.9467 48.4535 36.7467 48.4535 35.28C48.4535 33.8133 47.2535 32.6133 45.7868 32.6133C45.0668 32.6133 44.4001 32.88 43.8934 33.3867C43.3867 33.8933 43.1201 34.56 43.1201 35.28C43.1201 36.7467 44.3201 37.9467 45.7868 37.9467Z" fill="#0C8DC0"/>
<path d="M19.1201 37.9467C20.5868 37.9467 21.7868 36.7467 21.7868 35.28C21.7868 33.8133 20.5868 32.6133 19.1201 32.6133C18.4001 32.6133 17.7334 32.88 17.2267 33.3867C16.7201 33.8933 16.4535 34.56 16.4535 35.28C16.4535 36.7467 17.6535 37.9467 19.1201 37.9467Z" fill="#0C8DC0"/>
<path d="M51.0934 9.33333H45.0934V6C45.0934 4.90667 44.1868 4 43.0934 4C42.0001 4 41.0934 4.90667 41.0934 6V9.33333H23.7601V6C23.7601 4.90667 22.8534 4 21.7601 4C20.6668 4 19.7601 4.90667 19.7601 6V9.33333H13.7601C9.70676 9.33333 6.42676 12.6133 6.42676 16.6667V51.3333C6.42676 55.3867 9.70676 58.6667 13.7601 58.6667H51.0934C55.1468 58.6667 58.4268 55.3867 58.4268 51.3333V16.6667C58.4268 12.6133 55.1468 9.33333 51.0934 9.33333ZM54.4268 51.3333C54.4268 53.1733 52.9334 54.6667 51.0934 54.6667H13.7601C11.9201 54.6667 10.4268 53.1733 10.4268 51.3333V26.6667H54.4268V51.3333ZM54.4268 22.6667H10.4268V16.6667C10.4268 14.8267 11.9201 13.3333 13.7601 13.3333H19.7601V16.6667C19.7601 17.76 20.6668 18.6667 21.7601 18.6667C22.8534 18.6667 23.7601 17.76 23.7601 16.6667V13.3333H41.0934V16.6667C41.0934 17.76 42.0001 18.6667 43.0934 18.6667C44.1868 18.6667 45.0934 17.76 45.0934 16.6667V13.3333H51.0934C52.9334 13.3333 54.4268 14.8267 54.4268 16.6667V22.6667Z" fill="#0C8DC0"/>
<path d="M19.1201 48.6133C20.5868 48.6133 21.7868 47.4133 21.7868 45.9467C21.7868 44.48 20.5868 43.28 19.1201 43.28C18.4001 43.28 17.7334 43.5467 17.2267 44.0533C16.7201 44.56 16.4535 45.2267 16.4535 45.9467C16.4535 47.4133 17.6535 48.6133 19.1201 48.6133Z" fill="#0C8DC0"/>
</svg>
