<svg width="52" height="52" viewBox="0 0 52 52" fill="none" xmlns="http://www.w3.org/2000/svg">
<path d="M25.5996 0C39.7379 0 51.2 11.4612 51.2002 25.5996C51.2002 39.7381 39.738 51.2002 25.5996 51.2002C11.4613 51.2 0 39.7379 0 25.5996C0.00021131 11.4614 11.4614 0.00024101 25.5996 0ZM25.6182 3.2002C13.2148 3.2002 3.16016 13.2548 3.16016 25.6582C3.16023 38.0615 13.2149 48.1162 25.6182 48.1162C38.0214 48.1161 48.0761 38.0615 48.0762 25.6582C48.0762 13.2549 38.0214 3.20026 25.6182 3.2002Z" fill="#721C24"/>
<path fill-rule="evenodd" clip-rule="evenodd" d="M15.194 37.9023L12.6338 35.3421L35.3411 12.6348L37.9013 15.195L15.194 37.9023Z" fill="#721C24"/>
<path fill-rule="evenodd" clip-rule="evenodd" d="M12.3013 14.5963L14.9289 11.9688L38.2337 35.2737L35.6062 37.9012L12.3013 14.5963Z" fill="#721C24"/>
</svg>
