<svg width="16" height="20" viewBox="0 0 16 20" fill="none" xmlns="http://www.w3.org/2000/svg">
<path fill-rule="evenodd" clip-rule="evenodd" d="M14.164 4.164L11.336 1.336C10.961 0.961 10.452 0.75 9.922 0.75H2.75C1.645 0.75 0.75 1.645 0.75 2.75V16.75C0.75 17.855 1.645 18.75 2.75 18.75H12.75C13.855 18.75 14.75 17.855 14.75 16.75V5.578C14.75 5.048 14.539 4.539 14.164 4.164V4.164Z" stroke="#5D606F" stroke-width="1.5" stroke-linecap="round" stroke-linejoin="round"/>
<path d="M14.75 5.75H10.75C10.198 5.75 9.75 5.302 9.75 4.75V0.75" stroke="#5D606F" stroke-width="1.5" stroke-linecap="round" stroke-linejoin="round"/>
<path d="M5.44995 15.75L6.59995 8.84" stroke="#5D606F" stroke-width="1.5" stroke-linecap="round" stroke-linejoin="round"/>
<path d="M8.8999 15.75L10.0499 8.84" stroke="#5D606F" stroke-width="1.5" stroke-linecap="round" stroke-linejoin="round"/>
<path d="M11.55 10.6H4.55005" stroke="#5D606F" stroke-width="1.5" stroke-linecap="round" stroke-linejoin="round"/>
<path d="M10.95 14H3.94995" stroke="#5D606F" stroke-width="1.5" stroke-linecap="round" stroke-linejoin="round"/>
</svg>
