<svg width="20" height="20" viewBox="0 0 20 20" fill="none" xmlns="http://www.w3.org/2000/svg">
<path fill-rule="evenodd" clip-rule="evenodd" d="M6.04043 13.6583C6.27135 13.9149 6.25057 14.3101 5.99401 14.541L3.93648 16.3929C3.6987 16.6069 3.33769 16.6068 3.10001 16.3927L2.07848 15.4723C1.82203 15.2412 1.80145 14.846 2.0325 14.5896C2.26355 14.3331 2.65874 14.3126 2.91519 14.5436L3.51858 15.0873L5.15777 13.6119C5.41433 13.381 5.80951 13.4018 6.04043 13.6583Z" fill="#333333"/>
<path fill-rule="evenodd" clip-rule="evenodd" d="M6.03921 8.65611C6.2702 8.91261 6.24952 9.3078 5.99302 9.53879L3.93661 11.3907C3.69883 11.6048 3.33773 11.6048 3.10001 11.3906L2.07848 10.4702C1.82203 10.2391 1.80145 9.84395 2.0325 9.5875C2.26355 9.33106 2.65874 9.31048 2.91519 9.54153L3.51847 10.0851L5.15654 8.60992C5.41304 8.37893 5.80822 8.39961 6.03921 8.65611Z" fill="#333333"/>
<path fill-rule="evenodd" clip-rule="evenodd" d="M8.54128 15.4192C8.54128 15.074 8.8211 14.7942 9.16628 14.7942H17.5031C17.8483 14.7942 18.1281 15.074 18.1281 15.4192C18.1281 15.7644 17.8483 16.0442 17.5031 16.0442H9.16628C8.8211 16.0442 8.54128 15.7644 8.54128 15.4192Z" fill="#333333"/>
<path fill-rule="evenodd" clip-rule="evenodd" d="M8.54128 10.4171C8.54128 10.072 8.8211 9.79214 9.16628 9.79214H17.5031C17.8483 9.79214 18.1281 10.072 18.1281 10.4171C18.1281 10.7623 17.8483 11.0421 17.5031 11.0421H9.16628C8.8211 11.0421 8.54128 10.7623 8.54128 10.4171Z" fill="#333333"/>
<path fill-rule="evenodd" clip-rule="evenodd" d="M6.03921 3.65403C6.2702 3.91053 6.24952 4.30572 5.99302 4.5367L3.93661 6.38859C3.69883 6.60272 3.33773 6.60268 3.10001 6.38849L2.07848 5.46811C1.82203 5.23706 1.80145 4.84186 2.0325 4.58542C2.26355 4.32898 2.65874 4.30839 2.91519 4.53944L3.51847 5.08299L5.15654 3.60784C5.41304 3.37685 5.80822 3.39753 6.03921 3.65403Z" fill="#333333"/>
<path fill-rule="evenodd" clip-rule="evenodd" d="M8.54128 5.41505C8.54128 5.06988 8.8211 4.79005 9.16628 4.79005H17.5031C17.8483 4.79005 18.1281 5.06988 18.1281 5.41505C18.1281 5.76023 17.8483 6.04005 17.5031 6.04005H9.16628C8.8211 6.04005 8.54128 5.76023 8.54128 5.41505Z" fill="#333333"/>
</svg>
