<svg width="17" height="17" viewBox="0 0 17 17" fill="none" xmlns="http://www.w3.org/2000/svg">
<path fill-rule="evenodd" clip-rule="evenodd" d="M8.12813 1.25C4.32944 1.25 1.25 4.32944 1.25 8.12813C1.25 11.9268 4.32944 15.0063 8.12813 15.0063C11.9268 15.0063 15.0063 11.9268 15.0063 8.12813C15.0063 4.32944 11.9268 1.25 8.12813 1.25ZM0 8.12813C0 3.63909 3.63909 0 8.12813 0C12.6172 0 16.2563 3.63909 16.2563 8.12813C16.2563 12.6172 12.6172 16.2563 8.12813 16.2563C3.63909 16.2563 0 12.6172 0 8.12813Z" fill="#333333"/>
<path fill-rule="evenodd" clip-rule="evenodd" d="M8.12813 2.50104C8.4733 2.50104 8.75313 2.78086 8.75313 3.12604V7.67761L11.2052 8.49475C11.5327 8.60387 11.7097 8.95781 11.6006 9.28528C11.4915 9.61276 11.1375 9.78976 10.8101 9.68064L7.93053 8.72107C7.67529 8.63601 7.50313 8.39716 7.50313 8.12813V3.12604C7.50313 2.78086 7.78295 2.50104 8.12813 2.50104Z" fill="#333333"/>
</svg>
