<svg width="13" height="16" viewBox="0 0 13 16" fill="none" xmlns="http://www.w3.org/2000/svg">
<path fill-rule="evenodd" clip-rule="evenodd" d="M10.8333 3.12667C10.8333 2.78149 11.1132 2.50167 11.4583 2.50167H12.2917C12.6368 2.50167 12.9167 2.78149 12.9167 3.12667C12.9167 3.47184 12.6368 3.75167 12.2917 3.75167H11.4583C11.1132 3.75167 10.8333 3.47184 10.8333 3.12667Z" fill="#333333"/>
<path fill-rule="evenodd" clip-rule="evenodd" d="M3.95833 5.785C4.30351 5.785 4.58333 6.06482 4.58333 6.41V11.46C4.58333 11.8052 4.30351 12.085 3.95833 12.085C3.61316 12.085 3.33333 11.8052 3.33333 11.46V6.41C3.33333 6.06482 3.61316 5.785 3.95833 5.785Z" fill="#333333"/>
<path fill-rule="evenodd" clip-rule="evenodd" d="M6.45833 4.81833C6.80351 4.81833 7.08333 5.09815 7.08333 5.44333V12.335C7.08333 12.6802 6.80351 12.96 6.45833 12.96C6.11316 12.96 5.83333 12.6802 5.83333 12.335V5.44333C5.83333 5.09815 6.11316 4.81833 6.45833 4.81833Z" fill="#333333"/>
<path fill-rule="evenodd" clip-rule="evenodd" d="M8.95833 5.785C9.30351 5.785 9.58333 6.06482 9.58333 6.41V11.46C9.58333 11.8052 9.30351 12.085 8.95833 12.085C8.61316 12.085 8.33333 11.8052 8.33333 11.46V6.41C8.33333 6.06482 8.61316 5.785 8.95833 5.785Z" fill="#333333"/>
<path fill-rule="evenodd" clip-rule="evenodd" d="M0.833333 3.125C0.833333 2.77982 1.11316 2.5 1.45833 2.5H11.4583C11.8035 2.5 12.0833 2.77982 12.0833 3.125V12.9075C12.0833 14.2677 10.981 15.37 9.62083 15.37H3.29583C1.93566 15.37 0.833333 14.2677 0.833333 12.9075V3.125ZM2.08333 3.75V12.9075C2.08333 13.5773 2.62601 14.12 3.29583 14.12H9.62083C10.2907 14.12 10.8333 13.5773 10.8333 12.9075V3.75H2.08333Z" fill="#333333"/>
<path fill-rule="evenodd" clip-rule="evenodd" d="M3.14467 1.0139C3.33758 0.40945 3.89946 0 4.53333 0H8.38333C9.01714 0 9.57802 0.410071 9.77171 1.013L10.3869 2.93442C10.4922 3.26316 10.311 3.61498 9.98225 3.72023C9.65351 3.82549 9.30169 3.64432 9.19643 3.31558L8.58162 1.39533C8.55362 1.30831 8.47282 1.25 8.38333 1.25H4.53333C4.44235 1.25 4.36267 1.3087 4.33547 1.39403L3.72024 3.31558C3.61498 3.64432 3.26316 3.82549 2.93442 3.72023C2.60568 3.61498 2.42451 3.26316 2.52977 2.93442L3.14467 1.0139Z" fill="#333333"/>
<path fill-rule="evenodd" clip-rule="evenodd" d="M0 3.12667C0 2.78149 0.279822 2.50167 0.625 2.50167H1.45833C1.80351 2.50167 2.08333 2.78149 2.08333 3.12667C2.08333 3.47184 1.80351 3.75167 1.45833 3.75167H0.625C0.279822 3.75167 0 3.47184 0 3.12667Z" fill="#333333"/>
</svg>
