<svg width="20" height="20" viewBox="0 0 20 20" fill="none" xmlns="http://www.w3.org/2000/svg">
<path fill-rule="evenodd" clip-rule="evenodd" d="M2.70825 16.0417C2.70825 13.7405 4.57373 11.875 6.87492 11.875H13.1249C15.4261 11.875 17.2916 13.7405 17.2916 16.0417V16.6667C17.2916 17.0118 17.0118 17.2917 16.6666 17.2917C16.3214 17.2917 16.0416 17.0118 16.0416 16.6667V16.0417C16.0416 14.4308 14.7357 13.125 13.1249 13.125H6.87492C5.26409 13.125 3.95825 14.4308 3.95825 16.0417V16.6667C3.95825 17.0118 3.67843 17.2917 3.33325 17.2917C2.98807 17.2917 2.70825 17.0118 2.70825 16.6667V16.0417Z" fill="#333333"/>
<path fill-rule="evenodd" clip-rule="evenodd" d="M9.99992 3.125C8.50415 3.125 7.29158 4.33756 7.29158 5.83333C7.29158 7.3291 8.50415 8.54167 9.99992 8.54167C11.4957 8.54167 12.7083 7.3291 12.7083 5.83333C12.7083 4.33756 11.4957 3.125 9.99992 3.125ZM6.04159 5.83333C6.04159 3.64721 7.81379 1.875 9.99992 1.875C12.186 1.875 13.9583 3.64721 13.9583 5.83333C13.9583 8.01946 12.186 9.79167 9.99992 9.79167C7.81379 9.79167 6.04159 8.01946 6.04159 5.83333Z" fill="#333333"/>
</svg>
