<svg width="24" height="24" viewBox="0 0 24 24" fill="none" xmlns="http://www.w3.org/2000/svg">
<path fill-rule="evenodd" clip-rule="evenodd" d="M17.25 6.52934C17.25 6.11513 17.5858 5.77934 18 5.77934H19C19.4142 5.77934 19.75 6.11513 19.75 6.52934C19.75 6.94356 19.4142 7.27934 19 7.27934H18C17.5858 7.27934 17.25 6.94356 17.25 6.52934Z" fill="#333333"/>
<path fill-rule="evenodd" clip-rule="evenodd" d="M9 9.71934C9.41421 9.71934 9.75 10.0551 9.75 10.4693V16.5293C9.75 16.9436 9.41421 17.2793 9 17.2793C8.58579 17.2793 8.25 16.9436 8.25 16.5293V10.4693C8.25 10.0551 8.58579 9.71934 9 9.71934Z" fill="#333333"/>
<path fill-rule="evenodd" clip-rule="evenodd" d="M12 8.55934C12.4142 8.55934 12.75 8.89513 12.75 9.30934V17.5793C12.75 17.9936 12.4142 18.3293 12 18.3293C11.5858 18.3293 11.25 17.9936 11.25 17.5793V9.30934C11.25 8.89513 11.5858 8.55934 12 8.55934Z" fill="#333333"/>
<path fill-rule="evenodd" clip-rule="evenodd" d="M15 9.71934C15.4142 9.71934 15.75 10.0551 15.75 10.4693V16.5293C15.75 16.9436 15.4142 17.2793 15 17.2793C14.5858 17.2793 14.25 16.9436 14.25 16.5293V10.4693C14.25 10.0551 14.5858 9.71934 15 9.71934Z" fill="#333333"/>
<path fill-rule="evenodd" clip-rule="evenodd" d="M5.25 6.52734C5.25 6.11313 5.58579 5.77734 6 5.77734H18C18.4142 5.77734 18.75 6.11313 18.75 6.52734V18.2663C18.75 19.8986 17.4272 21.2213 15.795 21.2213H8.205C6.57279 21.2213 5.25 19.8986 5.25 18.2663V6.52734ZM6.75 7.27734V18.2663C6.75 19.0701 7.40121 19.7213 8.205 19.7213H15.795C16.5988 19.7213 17.25 19.0701 17.25 18.2663V7.27734H6.75Z" fill="#333333"/>
<path fill-rule="evenodd" clip-rule="evenodd" d="M8.0236 3.99402C8.2551 3.26868 8.92935 2.77734 9.69 2.77734H14.31C15.0706 2.77734 15.7436 3.26943 15.9761 3.99295L16.7143 6.29865C16.8406 6.69314 16.6232 7.11532 16.2287 7.24163C15.8342 7.36793 15.412 7.15053 15.2857 6.75604L14.5479 4.45174C14.5143 4.34732 14.4174 4.27734 14.31 4.27734H9.69C9.58082 4.27734 9.48521 4.34778 9.45256 4.45017L8.71428 6.75604C8.58798 7.15053 8.16579 7.36793 7.77131 7.24163C7.37682 7.11532 7.15941 6.69314 7.28572 6.29865L8.0236 3.99402Z" fill="#333333"/>
<path fill-rule="evenodd" clip-rule="evenodd" d="M4.25 6.52934C4.25 6.11513 4.58579 5.77934 5 5.77934H6C6.41421 5.77934 6.75 6.11513 6.75 6.52934C6.75 6.94356 6.41421 7.27934 6 7.27934H5C4.58579 7.27934 4.25 6.94356 4.25 6.52934Z" fill="#333333"/>
</svg>
