<svg width="52" height="52" viewBox="0 0 52 52" fill="none" xmlns="http://www.w3.org/2000/svg">
<path fill-rule="evenodd" clip-rule="evenodd" d="M0 26C0 11.6394 11.6394 0 26 0C40.3606 0 52 11.6394 52 26C52 40.3606 40.3606 52 26 52C11.6394 52 0 40.3606 0 26ZM26 4C13.8486 4 4 13.8486 4 26C4 31.3555 5.913 36.2637 9.09303 40.0785L40.0785 9.09303C36.2637 5.913 31.3555 4 26 4ZM42.907 11.9215L11.9215 42.907C15.7363 46.087 20.6445 48 26 48C38.1514 48 48 38.1514 48 26C48 20.6445 46.087 15.7363 42.907 11.9215Z" fill="#721C24"/>
</svg>
