<svg width="300" height="300" viewBox="0 0 300 300" fill="none" xmlns="http://www.w3.org/2000/svg">
<rect width="300" height="300" fill="white"/>
<circle cx="150" cy="150" r="126" fill="#F9F9F9"/>
<path fill-rule="evenodd" clip-rule="evenodd" d="M103.14 67.1325C97.09 68.3231 91.7006 73.4969 90.4104 79.3528C89.9399 81.4877 89.8348 205.658 90.3017 208.071C91.4203 213.858 95.6971 218.406 101.822 220.321L103.395 220.813L165.759 220.992L166.904 222.213C183.434 239.83 214.656 235.157 225.939 213.377C232.519 200.676 230.988 184.452 222.18 173.543L220.835 171.877L220.741 106.859L220.342 105.501C219.003 100.939 219.21 101.182 202.31 84.3299C186.298 68.3638 186.809 68.8192 183.5 67.5755L182.044 67.0282L142.988 67.0021C121.315 66.988 103.58 67.0456 103.14 67.1325ZM178.55 83.6999C178.55 94.3839 178.572 95.1877 178.896 96.4515C179.985 100.696 183.117 104.087 187.235 105.48L188.672 105.966L214.79 106.144L215.545 107.153L215.635 137.057C215.684 153.505 215.682 166.962 215.63 166.962C215.578 166.962 214.784 166.517 213.866 165.974C194.138 154.296 169.896 160.935 160.365 180.626C155.261 191.169 155.502 202.784 161.059 214.1C161.417 214.829 161.71 215.453 161.71 215.487C161.71 215.522 148.67 215.529 132.732 215.502L103.753 215.455L102.472 214.98C99.1423 213.747 96.707 211.17 95.6627 207.775C95.1843 206.219 95.2073 82.6596 95.6861 80.5956C96.3933 77.5513 98.487 74.838 101.159 73.5037C103.713 72.2289 100.56 72.3222 141.51 72.3094L178.55 72.2975V83.6999ZM200.726 100.479C187.68 100.548 186.601 100.286 184.617 96.5755L184.194 95.7849L184.093 74.185L210.451 100.429L200.726 100.479ZM195.838 165.722C222.513 168.021 234.389 199.584 215.654 218.386C202.404 231.684 180.252 230.496 168.834 215.876C152.195 194.569 168.973 163.407 195.838 165.722Z" fill="#333333"/>
<path fill-rule="evenodd" clip-rule="evenodd" d="M184.41 95.6139L184.833 96.4045C186.818 100.115 187.897 100.377 200.944 100.308L210.669 100.258L184.31 74.0141L184.41 95.6139Z" fill="#0D9BD3"/>
<path d="M189.581 178.185C188.83 178.364 188.168 178.846 187.65 179.614L187.238 180.204V190.189C187.238 198.478 187.274 200.264 187.489 200.657C187.632 200.925 190.153 203.533 193.085 206.445C196.75 210.089 198.574 211.786 198.949 211.875C201.452 212.536 203.544 210.643 202.954 208.249C202.775 207.606 202.113 206.874 198.037 202.819L193.335 198.12L193.228 180.025L192.727 179.382C191.941 178.346 190.796 177.917 189.581 178.185Z" fill="#333333"/>
<path d="M122.957 85.3846C122.581 85.5805 122.124 85.9396 121.945 86.1844C121.569 86.723 121.291 87.9797 121.291 89.2038V90.0688L120.524 90.2483C119.103 90.6074 117.176 91.652 116.049 92.6965C113.975 94.5898 113.289 96.124 113.175 99.2413C113.077 101.608 113.305 102.897 114.122 104.497C115.232 106.7 117.437 108.055 122.353 109.524C127.84 111.172 128.608 111.531 129.392 112.886C129.735 113.473 129.816 113.816 129.816 114.649C129.816 115.22 129.702 115.938 129.571 116.248C129.179 117.178 128.232 118.092 127.138 118.598C126.191 119.023 125.962 119.072 124.231 119.072C121.994 119.072 120.867 118.712 119.691 117.635C119.005 116.982 118.188 115.66 118.188 115.171C118.188 114.828 117.421 113.963 116.865 113.686C116.278 113.375 114.873 113.375 114.269 113.686C112.472 114.616 112.342 117.146 113.975 119.675C115.281 121.699 117.339 123.201 119.854 124.001L121.291 124.458V125.388C121.291 126.873 121.585 127.901 122.173 128.521C123.398 129.827 125.586 129.566 126.55 127.999C126.844 127.526 126.926 127.102 126.975 125.91L127.04 124.425L128.053 124.147C130.747 123.397 133.295 121.487 134.422 119.333C136.48 115.399 135.941 110.895 133.066 108.055C131.841 106.847 130.094 105.9 127.906 105.215C127.187 105.003 125.603 104.513 124.394 104.138C120.524 102.963 119.772 102.571 119.185 101.379C118.711 100.449 118.613 99.5351 118.907 98.5558C119.25 97.3644 119.952 96.581 121.242 95.9444C122.173 95.4874 122.532 95.4058 123.823 95.3569C125.603 95.2753 126.746 95.5527 127.922 96.3361C128.575 96.7931 128.771 97.0543 129.196 98.0825C129.865 99.682 130.551 100.253 131.89 100.351C133.377 100.465 134.503 99.633 134.765 98.2457C134.912 97.4297 134.585 95.9281 133.997 94.753C132.985 92.7455 130.339 90.8033 127.906 90.2483L127.007 90.0525V88.8121C126.991 86.8372 126.534 85.9232 125.292 85.352C124.443 84.9603 123.806 84.9603 122.957 85.3846Z" fill="#333333"/>
<path d="M110.214 138.606C109.611 138.87 108.909 139.569 108.68 140.143C108.289 141.091 108.664 142.597 109.415 143.233C110.361 144.025 108.174 143.979 146.85 143.979C178.901 143.979 182.834 143.948 183.372 143.746C184.613 143.249 185.2 142.41 185.2 141.168C185.2 140.066 184.629 139.149 183.682 138.715L182.981 138.389H146.834C117.019 138.404 110.622 138.435 110.214 138.606Z" fill="#333333"/>
<path d="M110.747 156.576C108.685 156.951 107.792 159.59 109.221 161.089C109.415 161.292 109.87 161.589 110.227 161.745C110.844 162.026 111.932 162.041 136.577 162.041C157.797 162.041 162.359 162.01 162.797 161.823C163.414 161.573 164.323 160.636 164.469 160.074C164.534 159.855 164.534 159.324 164.502 158.903C164.372 157.669 163.528 156.81 162.245 156.56C161.385 156.404 111.623 156.42 110.747 156.576Z" fill="#333333"/>
<path d="M110.139 174.783C109.763 174.939 109.257 175.345 108.996 175.672C108.588 176.187 108.523 176.39 108.523 177.295C108.523 178.2 108.588 178.403 108.996 178.918C109.257 179.245 109.763 179.651 110.139 179.807C110.775 180.088 111.509 180.104 125.576 180.104C135.318 180.104 140.556 180.041 140.948 179.932C142.188 179.62 143.216 178.013 142.939 176.858C142.759 176.125 142.221 175.345 141.617 174.955L141.013 174.564L125.919 174.533C111.428 174.486 110.775 174.502 110.139 174.783Z" fill="#333333"/>
</svg>
