<svg width="64" height="64" viewBox="0 0 53 42" fill="none" xmlns="http://www.w3.org/2000/svg">
<path fill-rule="evenodd" clip-rule="evenodd" d="M13.3395 32.6754C14.0785 33.4964 14.012 34.761 13.191 35.4999L6.6069 41.4259C5.84599 42.1108 4.69075 42.1105 3.93019 41.4253L0.661282 38.48C-0.159338 37.7407 -0.225209 36.4761 0.514154 35.6554C1.25352 34.8348 2.51813 34.7689 3.33875 35.5083L5.26961 37.248L10.515 32.5268C11.336 31.7879 12.6006 31.8544 13.3395 32.6754Z" fill="#0C8DC0"/>
<path fill-rule="evenodd" clip-rule="evenodd" d="M13.3356 16.6683C14.0748 17.4891 14.0086 18.7537 13.1878 19.4929L6.6073 25.4189C5.84642 26.1041 4.69091 26.104 3.93019 25.4186L0.661282 22.4734C-0.159338 21.734 -0.225209 20.4694 0.514154 19.6488C1.25352 18.8281 2.51813 18.7623 3.33875 19.5016L5.26925 21.241L10.5111 16.5205C11.3319 15.7813 12.5965 15.8475 13.3356 16.6683Z" fill="#0C8DC0"/>
<path fill-rule="evenodd" clip-rule="evenodd" d="M21.3422 38.3103C21.3422 37.2057 22.2377 36.3103 23.3422 36.3103H50.02C51.1246 36.3103 52.02 37.2057 52.02 38.3103C52.02 39.4148 51.1246 40.3103 50.02 40.3103H23.3422C22.2377 40.3103 21.3422 39.4148 21.3422 38.3103Z" fill="#0C8DC0"/>
<path fill-rule="evenodd" clip-rule="evenodd" d="M21.3422 22.3036C21.3422 21.199 22.2377 20.3036 23.3422 20.3036H50.02C51.1246 20.3036 52.02 21.199 52.02 22.3036C52.02 23.4082 51.1246 24.3036 50.02 24.3036H23.3422C22.2377 24.3036 21.3422 23.4082 21.3422 22.3036Z" fill="#0C8DC0"/>
<path fill-rule="evenodd" clip-rule="evenodd" d="M13.3356 0.661643C14.0748 1.48244 14.0086 2.74704 13.1878 3.4862L6.6073 9.41225C5.84642 10.0975 4.69091 10.0973 3.93019 9.41192L0.661282 6.46669C-0.159338 5.72733 -0.225209 4.46272 0.514154 3.6421C1.25352 2.82148 2.51813 2.75561 3.33875 3.49497L5.26925 5.23431L10.5111 0.513829C11.3319 -0.225334 12.5965 -0.159156 13.3356 0.661643Z" fill="#0C8DC0"/>
<path fill-rule="evenodd" clip-rule="evenodd" d="M21.3422 6.29692C21.3422 5.19235 22.2377 4.29692 23.3422 4.29692H50.02C51.1246 4.29692 52.02 5.19235 52.02 6.29692C52.02 7.40149 51.1246 8.29692 50.02 8.29692H23.3422C22.2377 8.29692 21.3422 7.40149 21.3422 6.29692Z" fill="#0C8DC0"/>
</svg>
