<svg width="17" height="17" viewBox="0 0 17 17" fill="none" xmlns="http://www.w3.org/2000/svg">
<path fill-rule="evenodd" clip-rule="evenodd" d="M1.60948 0.276143C1.24129 -0.0920474 0.644333 -0.0920476 0.276143 0.276143C-0.0920476 0.644333 -0.0920474 1.24129 0.276143 1.60948L6.94281 8.27614L0.276143 14.9428C-0.0920465 15.311 -0.0920468 15.908 0.276143 16.2761C0.644333 16.6443 1.24129 16.6443 1.60948 16.2761L8.27614 9.60948L14.9428 16.2761C15.311 16.6443 15.908 16.6443 16.2761 16.2761C16.6443 15.908 16.6443 15.311 16.2761 14.9428L9.60948 8.27614L16.2761 1.60948C16.6443 1.24129 16.6443 0.644333 16.2761 0.276143C15.908 -0.0920468 15.311 -0.0920461 14.9428 0.276143L8.27614 6.94281L1.60948 0.276143Z" fill="#333333"/>
</svg>
