<svg width="47" height="47" viewBox="0 0 47 47" fill="none" xmlns="http://www.w3.org/2000/svg">
<path d="M39.1667 27.4167V37.2083C39.1667 38.2471 38.754 39.2433 38.0195 39.9778C37.285 40.7124 36.2888 41.125 35.25 41.125H9.79167C8.7529 41.125 7.75668 40.7124 7.02216 39.9778C6.28765 39.2433 5.875 38.2471 5.875 37.2083V9.79167C5.875 8.7529 6.28765 7.75668 7.02216 7.02216C7.75668 6.28765 8.7529 5.875 9.79167 5.875H17.625" stroke="#323232" stroke-width="1.5" stroke-linecap="round" stroke-linejoin="round"/>
<path d="M37.2083 5.875H27.4167C25.2536 5.875 23.5 7.62855 23.5 9.79167V17.625C23.5 19.7881 25.2536 21.5417 27.4167 21.5417H37.2083C39.3714 21.5417 41.125 19.7881 41.125 17.625V9.79167C41.125 7.62855 39.3714 5.875 37.2083 5.875Z" stroke="#323232" stroke-width="1.5" stroke-linecap="round" stroke-linejoin="round"/>
<path d="M29.375 5.875H35.25V10.7708C35.25 11.0305 35.1468 11.2796 34.9632 11.4632C34.7796 11.6468 34.5305 11.75 34.2708 11.75H30.3542C30.0945 11.75 29.8454 11.6468 29.6618 11.4632C29.4782 11.2796 29.375 11.0305 29.375 10.7708V5.875Z" stroke="#323232" stroke-width="1.5" stroke-linecap="round" stroke-linejoin="round"/>
<path d="M13.7085 31.3335H31.3335" stroke="#323232" stroke-width="1.5" stroke-linecap="round" stroke-linejoin="round"/>
<path d="M13.7085 23.5H17.6252" stroke="#323232" stroke-width="1.5" stroke-linecap="round" stroke-linejoin="round"/>
<path d="M13.7085 15.6665H17.6252" stroke="#323232" stroke-width="1.5" stroke-linecap="round" stroke-linejoin="round"/>
</svg>
