<svg width="20" height="20" viewBox="0 0 20 20" fill="none" xmlns="http://www.w3.org/2000/svg">
<path fill-rule="evenodd" clip-rule="evenodd" d="M6.16217 6.26479C4.944 7.2062 3.87407 8.50098 3.12189 9.89202C3.08626 9.95807 3.0865 10.0392 3.12208 10.1053C3.87425 11.4966 4.94411 12.7915 6.1622 13.7329C7.38362 14.6769 8.71505 15.237 9.99996 15.237C11.2849 15.237 12.6163 14.6769 13.8377 13.733C15.0559 12.7916 16.1258 11.4968 16.878 10.1058C16.9137 10.0397 16.9134 9.95859 16.8778 9.89252C16.1257 8.50117 15.0558 7.20631 13.8377 6.26487C12.6163 5.32085 11.2849 4.76081 9.99996 4.76081C8.71505 4.76081 7.38361 5.32085 6.16217 6.26479ZM5.4342 5.3228C6.7913 4.27402 8.37237 3.57031 9.99996 3.57031C11.6276 3.57031 13.2086 4.27402 14.5657 5.32292C15.9261 6.37433 17.1008 7.80145 17.9253 9.32667C18.1513 9.74557 18.1515 10.2526 17.9255 10.6715C17.101 12.1963 15.9261 13.6237 14.5657 14.675C13.2086 15.7238 11.6275 16.4275 9.99996 16.4275C8.37236 16.4275 6.79129 15.7238 5.43417 14.6749C4.0738 13.6235 2.89914 12.1963 2.07465 10.6711C1.84864 10.2522 1.84841 9.74517 2.07442 9.32626C2.89891 7.80147 4.07383 6.37409 5.4342 5.3228ZM11.3468 8.65204C10.603 7.90819 9.39693 7.90819 8.65308 8.65204C7.90923 9.39588 7.90923 10.6019 8.65308 11.3458C9.39693 12.0896 10.603 12.0896 11.3468 11.3458C12.0906 10.6019 12.0906 9.39588 11.3468 8.65204ZM7.81127 7.81022C9.02004 6.60146 10.9798 6.60146 12.1886 7.81022C13.3974 9.01899 13.3974 10.9788 12.1886 12.1876C10.9798 13.3963 9.02004 13.3963 7.81127 12.1876C6.6025 10.9788 6.6025 9.01899 7.81127 7.81022Z" fill="#333333"/>
</svg>
