<svg width="64" height="64" viewBox="0 0 64 64" fill="none" xmlns="http://www.w3.org/2000/svg">
<path fill-rule="evenodd" clip-rule="evenodd" d="M10.6666 12.6695C10.6666 8.61708 13.9497 5.33398 18.0022 5.33398H37.1355C39.0804 5.33398 40.9469 6.10802 42.3219 7.48309L49.8664 15.0276C51.2415 16.4026 52.0155 18.2691 52.0155 20.214L52.0089 55.1899C52.0133 55.244 52.0155 55.2987 52.0155 55.354C52.0155 56.4586 51.1201 57.354 50.0155 57.354H18.0022C13.9497 57.354 10.6666 54.0709 10.6666 50.0184V12.6695ZM48.0092 53.354L48.0155 20.214C48.0154 19.3313 47.6637 18.4817 47.038 17.856L39.4935 10.3115C38.8677 9.68575 38.0184 9.33398 37.1355 9.33398H18.0022C16.1589 9.33398 14.6666 10.8262 14.6666 12.6695V50.0184C14.6666 51.8618 16.1589 53.354 18.0022 53.354H48.0092Z" fill="#0C8DC0"/>
<path fill-rule="evenodd" clip-rule="evenodd" d="M36.6766 5.33398C37.7812 5.33398 38.6766 6.22941 38.6766 7.33398V18.0051C38.6766 18.3731 38.9764 18.6729 39.3444 18.6729H50.0155C51.1201 18.6729 52.0155 19.5683 52.0155 20.6729C52.0155 21.7774 51.1201 22.6729 50.0155 22.6729H39.3444C36.7672 22.6729 34.6766 20.5823 34.6766 18.0051V7.33398C34.6766 6.22941 35.5721 5.33398 36.6766 5.33398Z" fill="#0C8DC0"/>
<path fill-rule="evenodd" clip-rule="evenodd" d="M41.8852 29.9948C42.6303 30.8101 42.5735 32.0752 41.7581 32.8204L30.0872 43.487C29.3228 44.1857 28.1514 44.1853 27.3875 43.486L20.3917 37.0818C19.577 36.336 19.5211 35.0709 20.267 34.2562C21.0128 33.4414 22.2779 33.3856 23.0926 34.1314L28.739 39.3003L39.0596 29.8678C39.8749 29.1226 41.14 29.1795 41.8852 29.9948Z" fill="#0C8DC0"/>
</svg>
