<svg width="32" height="32" viewBox="0 0 32 32" fill="none" xmlns="http://www.w3.org/2000/svg">
<path fill-rule="evenodd" clip-rule="evenodd" d="M5.33203 6.33575C5.33203 4.30951 6.97358 2.66797 8.99981 2.66797H18.5665C19.5389 2.66797 20.4722 3.05499 21.1597 3.74252L24.9319 7.51476C25.6195 8.20229 26.0065 9.13551 26.0065 10.108L26.0032 27.5959C26.0054 27.623 26.0065 27.6503 26.0065 27.678C26.0065 28.2303 25.5588 28.678 25.0065 28.678H8.99981C6.97358 28.678 5.33203 27.0364 5.33203 25.0102V6.33575ZM24.0033 26.678L24.0065 10.108C24.0064 9.66661 23.8305 9.24181 23.5177 8.92897L19.7455 5.15673C19.4326 4.84385 19.0079 4.66797 18.5665 4.66797H8.99981C8.07815 4.66797 7.33203 5.41408 7.33203 6.33575V25.0102C7.33203 25.9319 8.07815 26.678 8.99981 26.678H24.0033Z" fill="#333333"/>
<path fill-rule="evenodd" clip-rule="evenodd" d="M18.337 2.66797C18.8893 2.66797 19.337 3.11568 19.337 3.66797V9.00352C19.337 9.18755 19.4869 9.33741 19.6709 9.33741H25.0065C25.5588 9.33741 26.0065 9.78513 26.0065 10.3374C26.0065 10.8897 25.5588 11.3374 25.0065 11.3374H19.6709C18.3823 11.3374 17.337 10.2921 17.337 9.00352V3.66797C17.337 3.11568 17.7847 2.66797 18.337 2.66797Z" fill="#333333"/>
<path fill-rule="evenodd" clip-rule="evenodd" d="M20.9413 14.9984C21.3139 15.406 21.2854 16.0386 20.8778 16.4112L15.0423 21.7445C14.6601 22.0938 14.0744 22.0936 13.6925 21.744L10.1946 18.5419C9.78721 18.169 9.75928 17.5364 10.1322 17.1291C10.5051 16.7217 11.1377 16.6938 11.545 17.0667L14.3682 19.6511L19.5285 14.9349C19.9362 14.5623 20.5687 14.5907 20.9413 14.9984Z" fill="#333333"/>
</svg>
