<svg width="20" height="20" viewBox="0 0 20 20" fill="none" xmlns="http://www.w3.org/2000/svg">
<path fill-rule="evenodd" clip-rule="evenodd" d="M2.70825 5C2.70825 3.27411 4.10736 1.875 5.83325 1.875H12.1902C13.019 1.875 13.8139 2.20424 14.3999 2.79029L16.3763 4.76668C16.9623 5.35273 17.2916 6.14759 17.2916 6.97639V15C17.2916 16.7259 15.8925 18.125 14.1666 18.125H5.83325C4.10736 18.125 2.70825 16.7259 2.70825 15V5ZM5.83325 3.125C4.79772 3.125 3.95825 3.96447 3.95825 5V15C3.95825 16.0355 4.79772 16.875 5.83325 16.875H14.1666C15.2021 16.875 16.0416 16.0355 16.0416 15V6.97639C16.0416 6.47911 15.844 6.0022 15.4924 5.65057L13.516 3.67417C13.1644 3.32254 12.6875 3.125 12.1902 3.125H5.83325Z" fill="#333333"/>
<path fill-rule="evenodd" clip-rule="evenodd" d="M6.04158 14.1667C6.04158 13.8215 6.32141 13.5417 6.66658 13.5417H13.3333C13.6784 13.5417 13.9583 13.8215 13.9583 14.1667C13.9583 14.5118 13.6784 14.7917 13.3333 14.7917H6.66658C6.32141 14.7917 6.04158 14.5118 6.04158 14.1667Z" fill="#333333"/>
<path fill-rule="evenodd" clip-rule="evenodd" d="M6.04158 11.25C6.04158 10.9048 6.32141 10.625 6.66658 10.625H13.3333C13.6784 10.625 13.9583 10.9048 13.9583 11.25C13.9583 11.5952 13.6784 11.875 13.3333 11.875H6.66658C6.32141 11.875 6.04158 11.5952 6.04158 11.25Z" fill="#333333"/>
<path fill-rule="evenodd" clip-rule="evenodd" d="M6.04158 8.33333C6.04158 7.98816 6.32141 7.70833 6.66658 7.70833H9.16658C9.51176 7.70833 9.79158 7.98816 9.79158 8.33333C9.79158 8.67851 9.51176 8.95833 9.16658 8.95833H6.66658C6.32141 8.95833 6.04158 8.67851 6.04158 8.33333Z" fill="#333333"/>
<path fill-rule="evenodd" clip-rule="evenodd" d="M12.0833 1.875C12.4284 1.875 12.7083 2.15482 12.7083 2.5V5.41667C12.7083 5.99196 13.1746 6.45833 13.7499 6.45833H16.6666C17.0118 6.45833 17.2916 6.73816 17.2916 7.08333C17.2916 7.42851 17.0118 7.70833 16.6666 7.70833H13.7499C12.4843 7.70833 11.4583 6.68232 11.4583 5.41667V2.5C11.4583 2.15482 11.7381 1.875 12.0833 1.875Z" fill="#333333"/>
</svg>
