<svg width="396" height="309" viewBox="0 0 396 309" fill="none" xmlns="http://www.w3.org/2000/svg">
<rect width="396" height="309" fill="white"/>
<g clip-path="url(#clip0_521_12710)">
<path d="M279.504 224.234H276.997V221.722H275.994V224.234H273.487V225.239H275.994V227.751H276.997V225.239H279.504V224.234Z" fill="#0C2841"/>
<path d="M109.776 198.361V195.849H108.773V198.361H106.266V199.365H108.773V201.877H109.776V199.365H112.283V198.361H109.776Z" fill="#0C2841"/>
<path d="M81.1952 44.8782H78.6881V42.3662H77.6853V44.8782H75.1782V45.883H77.6853V48.395H78.6881V45.883H81.1952V44.8782Z" fill="#0C2841"/>
<path d="M125.57 215.944C123.634 215.944 122.06 214.367 122.06 212.427C122.06 210.488 123.634 208.911 125.57 208.911C127.505 208.911 129.08 210.488 129.08 212.427C129.08 214.367 127.505 215.944 125.57 215.944ZM125.57 209.915C124.189 209.915 123.063 211.043 123.063 212.427C123.063 213.812 124.189 214.939 125.57 214.939C126.951 214.939 128.077 213.812 128.077 212.427C128.077 211.043 126.951 209.915 125.57 209.915Z" fill="#0C2841"/>
<path d="M246.16 26.2893H243.653V23.7773H242.65V26.2893H240.143V27.2941H242.65V29.8061H243.653V27.2941H246.16V26.2893Z" fill="#0C2841"/>
<path d="M264.963 25.0336C263.028 25.0336 261.453 23.456 261.453 21.5168C261.453 19.5775 263.028 18 264.963 18C266.898 18 268.473 19.5775 268.473 21.5168C268.473 23.456 266.898 25.0336 264.963 25.0336ZM264.963 19.0048C263.582 19.0048 262.456 20.1327 262.456 21.5168C262.456 22.9009 263.582 24.0288 264.963 24.0288C266.344 24.0288 267.47 22.9009 267.47 21.5168C267.47 20.1327 266.344 19.0048 264.963 19.0048Z" fill="#0C2841"/>
<path d="M337.033 55.1095C337.033 55.0567 337.051 49.7916 342.534 49.7363C347.077 49.6911 347.553 45.6167 347.57 45.4434L348.568 45.5464C348.563 45.5966 347.972 50.6859 342.544 50.7386C338.074 50.7838 338.036 54.9211 338.036 55.0994L337.033 55.107V55.1095Z" fill="#0C2841"/>
<path d="M47.2219 80.2295L46.2191 80.2219L46.7205 80.2269H46.2191C46.2191 80.0486 46.1815 75.9088 41.7139 75.8636C36.2861 75.8109 35.6945 70.7216 35.6895 70.6713L36.6873 70.5684C36.7073 70.7417 37.2037 74.8161 41.724 74.8613C47.2044 74.9166 47.2244 80.1792 47.2244 80.2345L47.2219 80.2295Z" fill="#0C2841"/>
<path d="M286.065 39.603H110.485C104.901 39.603 100.374 44.1388 100.374 49.7339V159.844C100.374 165.439 104.901 169.975 110.485 169.975H286.065C291.649 169.975 296.176 165.439 296.176 159.844V49.7339C296.176 44.1388 291.649 39.603 286.065 39.603Z" fill="white"/>
<path d="M286.065 170.477H110.485C104.633 170.477 99.8726 165.707 99.8726 159.844V49.7338C99.8726 43.8708 104.633 39.1006 110.485 39.1006H286.065C291.916 39.1006 296.677 43.8708 296.677 49.7338V159.844C296.677 165.707 291.916 170.477 286.065 170.477ZM110.485 40.1054C105.188 40.1054 100.875 44.4235 100.875 49.7338V159.844C100.875 165.152 105.185 169.473 110.485 169.473H286.065C291.362 169.473 295.674 165.154 295.674 159.844V49.7338C295.674 44.426 291.364 40.1054 286.065 40.1054H110.485Z" fill="#0C2841"/>
<path d="M139.043 54.4536V100.214H257.063V81.5856C257.063 81.5856 248.486 69.5356 233.619 84.826C230.37 88.1695 222.506 97.3809 215.431 88.8753C210.888 83.4118 206.383 68.0635 202.093 63.7681C199.062 60.7311 191.335 58.8446 186.532 67.6164C184.343 71.613 180.841 82.0427 179.459 84.4216C177.757 87.3556 169.76 92.5202 165.919 84.0172C163.133 77.8477 160.057 63.3636 154.399 59.5153C148.74 55.6669 139.041 54.4536 139.041 54.4536H139.043Z" fill="#1688FA"/>
<path d="M261.202 104.161H135.308V49.9023H261.202V104.161ZM136.31 103.156H260.199V50.9071H136.31V103.156Z" fill="#0C2841"/>
<path d="M238.15 96.743C230.804 96.743 226.098 85.2256 223.16 78.0363C222.661 76.8155 222.23 75.7604 221.846 74.9114C217.983 66.353 216.644 64.4967 213.43 63.2256C210.825 62.1957 208.311 62.2083 205.959 63.2658C202.858 64.66 200.599 67.6618 199.737 70.018C199.062 71.8618 198.458 73.5424 197.926 75.0269C195.121 82.8442 193.84 86.4138 190.746 89.825C188.359 92.4551 185.589 93.7086 182.731 93.4549C179.449 93.161 176.629 90.9102 175.4 88.9458C174.312 87.205 173.538 85.3437 172.643 83.1884C171.051 79.3601 169.07 74.5949 164.322 68.747C157.53 60.3871 139.346 64.6926 139.163 64.7353L138.928 63.7582C139.7 63.5698 157.911 59.2592 165.101 68.1114C169.943 74.0724 171.953 78.9105 173.57 82.8015C174.448 84.9166 175.207 86.7403 176.253 88.4108C177.356 90.1742 179.883 92.1913 182.824 92.4526C185.394 92.6837 187.81 91.5709 190.009 89.1493C192.97 85.8837 194.231 82.3745 196.989 74.6878C197.52 73.2032 198.124 71.5227 198.801 69.6739C199.737 67.1192 202.188 63.8637 205.555 62.3489C208.163 61.1759 210.938 61.1583 213.806 62.2912C217.484 63.7456 219.023 66.1998 222.769 74.4994C223.16 75.3661 223.594 76.4286 224.098 77.6595C227.244 85.3612 232.514 98.2527 240.529 95.2936C244.101 93.9748 244.931 91.174 246.674 80.699C247.123 78.0036 248.268 75.9689 249.986 74.8134C251.791 73.6026 254.21 73.3339 257.183 74.0146L256.96 74.9943C254.268 74.3788 252.112 74.5974 250.545 75.6499C248.672 76.9084 247.942 79.1792 247.664 80.8648C245.846 91.7995 244.941 94.736 240.875 96.2381C239.932 96.5873 239.025 96.7481 238.157 96.7481L238.15 96.743Z" fill="#0C2841"/>
<path d="M237.086 137.236L221.089 139.078L225.521 123.089C231.847 124.865 236.58 130.462 237.086 137.236Z" fill="#1688FA"/>
<path d="M221.214 154.903C212.159 154.903 204.793 147.523 204.793 138.45C204.793 129.376 212.159 121.996 221.214 121.996C222.721 121.996 224.215 122.202 225.657 122.604C232.278 124.463 237.074 130.328 237.588 137.199C237.62 137.598 237.638 138.02 237.638 138.45C237.638 147.523 230.272 154.903 221.217 154.903H221.214ZM221.214 123.001C212.713 123.001 205.796 129.931 205.796 138.45C205.796 146.968 212.713 153.898 221.214 153.898C229.716 153.898 236.633 146.968 236.633 138.45C236.633 138.048 236.618 137.653 236.588 137.276C236.106 130.823 231.603 125.317 225.386 123.571C224.032 123.192 222.628 122.998 221.214 122.998V123.001Z" fill="#0C2841"/>
<path d="M272.938 137.236L256.94 139.078L268.929 127.816C271.2 130.356 272.667 133.629 272.938 137.236Z" fill="#1688FA"/>
<path d="M257.065 154.903C248.01 154.903 240.644 147.523 240.644 138.45C240.644 129.376 248.01 121.996 257.065 121.996C258.572 121.996 260.066 122.202 261.508 122.604C264.514 123.446 267.211 125.134 269.302 127.48C270.934 129.303 272.155 131.509 272.835 133.855C273.151 134.938 273.354 136.061 273.436 137.199C273.469 137.598 273.487 138.02 273.487 138.45C273.487 141.662 272.564 144.772 270.817 147.445C267.768 152.115 262.626 154.903 257.065 154.903ZM257.065 123.001C248.564 123.001 241.647 129.931 241.647 138.45C241.647 146.968 248.564 153.898 257.065 153.898C262.288 153.898 267.116 151.281 269.979 146.895C271.619 144.388 272.484 141.466 272.484 138.45C272.484 138.048 272.469 137.653 272.439 137.276C272.358 136.206 272.168 135.151 271.872 134.137C271.235 131.934 270.089 129.864 268.555 128.15C266.59 125.945 264.06 124.362 261.237 123.571C259.883 123.192 258.479 122.998 257.065 122.998V123.001Z" fill="#0C2841"/>
<path d="M116.188 149.683L115.396 149.07L127.831 132.976L138.153 146.598L156.66 127.555L170.684 142.109L184.365 126.935L185.107 127.608L170.709 143.581L156.655 128.997L138.057 148.136L127.821 134.629L116.188 149.683Z" fill="#0C2841"/>
<path d="M184.486 129.532C185.455 129.532 186.241 128.745 186.241 127.774C186.241 126.802 185.455 126.015 184.486 126.015C183.517 126.015 182.731 126.802 182.731 127.774C182.731 128.745 183.517 129.532 184.486 129.532Z" fill="#1688FA"/>
<path d="M170.822 143.976C171.792 143.976 172.577 143.189 172.577 142.217C172.577 141.246 171.792 140.459 170.822 140.459C169.853 140.459 169.067 141.246 169.067 142.217C169.067 143.189 169.853 143.976 170.822 143.976Z" fill="#1688FA"/>
<path d="M156.657 130.286C157.627 130.286 158.412 129.499 158.412 128.527C158.412 127.556 157.627 126.769 156.657 126.769C155.688 126.769 154.902 127.556 154.902 128.527C154.902 129.499 155.688 130.286 156.657 130.286Z" fill="#1688FA"/>
<path d="M138.105 148.874C139.074 148.874 139.86 148.087 139.86 147.116C139.86 146.145 139.074 145.357 138.105 145.357C137.136 145.357 136.35 146.145 136.35 147.116C136.35 148.087 137.136 148.874 138.105 148.874Z" fill="#1688FA"/>
<path d="M127.701 135.686C128.67 135.686 129.456 134.899 129.456 133.928C129.456 132.957 128.67 132.169 127.701 132.169C126.732 132.169 125.946 132.957 125.946 133.928C125.946 134.899 126.732 135.686 127.701 135.686Z" fill="#1688FA"/>
<path d="M116.043 150.633C117.012 150.633 117.798 149.845 117.798 148.874C117.798 147.903 117.012 147.116 116.043 147.116C115.074 147.116 114.288 147.903 114.288 148.874C114.288 149.845 115.074 150.633 116.043 150.633Z" fill="#1688FA"/>
<path d="M188.497 154.149H111.53V121.494H188.497V154.149ZM112.533 153.145H187.494V122.498H112.533V153.145Z" fill="#0C2841"/>
<path d="M272.985 138.449C272.985 141.667 272.035 144.664 270.398 147.168L256.94 139.077L272.353 133.996C272.657 135.036 272.855 136.121 272.938 137.236C272.97 137.638 272.985 138.042 272.985 138.449Z" fill="#0C2841"/>
<path d="M256.098 182.856H175.802C172.983 182.856 170.697 185.146 170.697 187.971V215.351C170.697 218.176 172.983 220.466 175.802 220.466H256.098C258.917 220.466 261.202 218.176 261.202 215.351V187.971C261.202 185.146 258.917 182.856 256.098 182.856Z" fill="white"/>
<path d="M256.098 220.968H175.802C172.71 220.968 170.196 218.449 170.196 215.351V187.971C170.196 184.874 172.71 182.354 175.802 182.354H256.098C259.189 182.354 261.704 184.874 261.704 187.971V215.351C261.704 218.449 259.189 220.968 256.098 220.968ZM175.802 183.359C173.264 183.359 171.199 185.429 171.199 187.971V215.351C171.199 217.894 173.264 219.963 175.802 219.963H256.098C258.635 219.963 260.701 217.894 260.701 215.351V187.971C260.701 185.429 258.635 183.359 256.098 183.359H175.802Z" fill="#0C2841"/>
<path d="M189.673 211.272C194.626 211.272 198.641 207.249 198.641 202.287C198.641 197.324 194.626 193.301 189.673 193.301C184.721 193.301 180.706 197.324 180.706 202.287C180.706 207.249 184.721 211.272 189.673 211.272Z" fill="#1688FA"/>
<path d="M233.258 196.228H204.063V200.824H233.258V196.228Z" fill="#0C2841"/>
<path d="M252.861 203.332H204.063V207.928H252.861V203.332Z" fill="#1688FA"/>
<path d="M136.791 279.141C136.791 279.141 135.124 271.625 139.291 264.317C139.291 264.317 141.582 257.218 137.832 250.748C134.081 244.277 137.832 236.969 142.207 235.924C146.581 234.879 151.791 238.429 153.042 243.44C154.293 248.452 153.25 252.001 160.751 255.759C168.252 259.517 167.939 279.143 167.939 279.143H136.789L136.791 279.141Z" fill="#FAFBFD"/>
<path d="M168.435 279.643H136.388L136.3 279.249C136.23 278.935 134.645 271.492 138.827 264.117C139.01 263.504 140.833 256.927 137.398 250.999C135.518 247.756 135.272 243.953 136.724 240.567C137.857 237.922 139.913 235.955 142.091 235.435C146.769 234.319 152.222 238.075 153.529 243.317C153.774 244.307 153.932 245.224 154.083 246.113C154.704 249.758 155.153 252.391 160.974 255.307C168.669 259.163 168.453 278.334 168.44 279.148L168.433 279.643H168.435ZM137.21 278.638H167.443C167.425 275.594 167.016 259.457 160.531 256.206C154.045 252.956 153.719 249.921 153.097 246.281C152.949 245.412 152.796 244.513 152.558 243.561C151.377 238.823 146.499 235.417 142.327 236.412C140.452 236.859 138.659 238.602 137.649 240.961C136.325 244.053 136.551 247.527 138.268 250.494C142.086 257.083 139.868 264.172 139.77 264.471L139.727 264.566C136.235 270.688 136.949 277.021 137.21 278.638Z" fill="#0C2841"/>
<path d="M152.589 279.455C146.381 265.872 141.761 236.09 141.713 235.791L142.703 235.638C142.748 235.937 147.349 265.581 153.499 279.035L152.586 279.455H152.589Z" fill="#0C2841"/>
<path d="M120.305 255.634C122.105 255.634 123.564 254.172 123.564 252.368C123.564 250.565 122.105 249.103 120.305 249.103C118.505 249.103 117.046 250.565 117.046 252.368C117.046 254.172 118.505 255.634 120.305 255.634Z" fill="#0C2841"/>
<path d="M136.784 279.523C126.42 275.707 120.608 259.982 120.368 259.314L121.546 258.884C121.604 259.043 127.402 274.73 137.218 278.342L136.786 279.52L136.784 279.523Z" fill="#0C2841"/>
<path d="M150.408 239.1L145.078 253.422L146.018 253.773L151.348 239.451L150.408 239.1Z" fill="#0C2841"/>
<path d="M153.129 246.029L146.97 261.622L147.903 261.992L154.061 246.398L153.129 246.029Z" fill="#0C2841"/>
<path d="M115.248 253.255C115.248 253.255 120.305 250.609 125.331 252.21C125.331 252.21 126.705 259.592 121.581 260.142C115.747 260.768 115.248 253.252 115.248 253.252V253.255Z" fill="#1688FA"/>
<path d="M107.311 253.031C108.948 253.031 110.274 251.702 110.274 250.062C110.274 248.422 108.948 247.093 107.311 247.093C105.674 247.093 104.348 248.422 104.348 250.062C104.348 251.702 105.674 253.031 107.311 253.031Z" fill="#0C2841"/>
<path d="M130.749 274.757C130.749 274.757 127.831 270.582 128.25 267.241C128.666 263.9 130.749 262.858 131.584 263.067C132.416 263.275 133.875 263.692 133.251 266.824C132.627 269.957 130.752 274.757 130.752 274.757H130.749Z" fill="#0C2841"/>
<path d="M137.989 267.455L137.395 268.265L152.854 279.643L153.448 278.833L137.989 267.455Z" fill="#0C2841"/>
<path d="M136.918 272.172L136.333 272.988L145.458 279.554L146.043 278.737L136.918 272.172Z" fill="#0C2841"/>
<path d="M180.444 247.304C180.444 247.304 178.361 242.92 180.444 237.283C182.528 231.646 183.987 214.11 171.484 214.944C158.981 215.778 158.149 232.48 159.397 241.041C160.646 249.602 158.773 255.448 156.69 260.248C154.606 265.051 147.938 268.598 148.981 279.246H191.28C191.28 279.246 193.363 262.335 180.444 247.304Z" fill="#FAFBFD"/>
<path d="M191.724 279.749H148.527L148.482 279.297C147.73 271.6 150.961 267.437 153.559 264.091C154.629 262.715 155.639 261.411 156.231 260.05C158.345 255.179 160.13 249.517 158.904 241.114C157.913 234.34 158.362 224.437 162.882 218.831C165.038 216.155 167.922 214.678 171.452 214.445C174.994 214.208 177.742 215.364 179.617 217.884C183.598 223.227 182.402 233.433 180.916 237.459C179.053 242.498 180.65 246.515 180.873 247.035C187.584 254.87 190.194 263.207 191.202 268.827C192.298 274.938 191.801 279.136 191.779 279.312L191.724 279.751V279.749ZM149.442 278.744H190.824C191.027 275.998 191.536 260.977 180.066 247.63L180.023 247.58L179.993 247.52C179.905 247.334 177.842 242.878 179.976 237.108C181.4 233.254 182.568 223.52 178.815 218.481C177.155 216.253 174.703 215.233 171.519 215.444C168.28 215.66 165.638 217.012 163.662 219.461C159.345 224.817 158.936 234.392 159.896 240.969C161.163 249.64 159.22 255.684 157.151 260.449C156.509 261.929 155.461 263.278 154.351 264.707C151.789 268.008 148.89 271.74 149.44 278.744H149.442Z" fill="#0C2841"/>
<path d="M111.011 261.278C111.011 261.278 104.505 261.798 103.472 260.241C102.44 258.683 105.257 257.307 108.955 259.655C109.487 259.992 111.011 261.276 111.011 261.276V261.278Z" fill="#0C2841"/>
<path d="M113.027 264.589C113.027 264.589 106.772 266.455 105.438 265.146C104.104 263.838 106.574 261.906 110.678 263.431C111.267 263.649 113.027 264.586 113.027 264.586V264.589Z" fill="#0C2841"/>
<path d="M126.823 279.638C114.982 270.479 107.358 257.035 107.281 256.902L108.374 256.287C108.449 256.42 115.955 269.648 127.588 278.646L126.821 279.641L126.823 279.638Z" fill="#0C2841"/>
<path d="M170.887 279.234C166.678 256.528 166.904 240.2 167.834 230.501C168.844 219.956 170.83 214.864 170.915 214.653L171.848 215.025C171.828 215.075 169.819 220.237 168.827 230.662C167.909 240.288 167.693 256.498 171.875 279.051L170.89 279.234H170.887Z" fill="#0C2841"/>
<path d="M160.815 224.28L160.059 224.94L167.721 233.747L168.477 233.086L160.815 224.28Z" fill="#0C2841"/>
<path d="M159.597 230.148L158.843 230.812L167.393 240.562L168.146 239.899L159.597 230.148Z" fill="#0C2841"/>
<path d="M102.713 250.868C102.713 250.868 107.018 248.349 111.881 249.919C111.881 249.919 113.132 256.633 108.472 257.133C103.167 257.704 102.713 250.868 102.713 250.868Z" fill="#1688FA"/>
<path d="M181.663 248.983L168.865 265.238L169.653 265.86L182.451 249.606L181.663 248.983Z" fill="#0C2841"/>
<path d="M184.289 252.799L169.657 270.956L170.437 271.587L185.069 253.431L184.289 252.799Z" fill="#0C2841"/>
<path d="M290.62 249.736C292.256 249.736 293.583 248.406 293.583 246.767C293.583 245.127 292.256 243.797 290.62 243.797C288.983 243.797 287.656 245.127 287.656 246.767C287.656 248.406 288.983 249.736 290.62 249.736Z" fill="#0C2841"/>
<path d="M294.967 257.749C294.967 257.749 300.289 253.966 300.084 252.107C299.878 250.248 296.835 251.004 295.506 255.184C295.315 255.784 294.967 257.749 294.967 257.749Z" fill="#0C2841"/>
<path d="M295.541 261.585C295.541 261.585 301.533 258.992 301.718 257.133C301.904 255.274 298.77 255.377 296.601 259.188C296.291 259.736 295.541 261.585 295.541 261.585Z" fill="#0C2841"/>
<path d="M293.179 279.566L291.986 279.179C296.872 264.004 293.099 252.426 293.059 252.311L294.247 251.909C294.41 252.394 298.198 263.974 293.179 279.566Z" fill="#0C2841"/>
<path d="M294.661 244.428C294.661 244.428 289.747 245.264 287.022 249.595C287.022 249.595 290.364 255.548 294.257 252.933C298.69 249.959 294.661 244.425 294.661 244.425V244.428Z" fill="#1688FA"/>
<path d="M269.352 279.246C269.352 279.246 268.104 273.612 271.228 268.136C271.228 268.136 272.945 262.816 270.135 257.965C267.324 253.114 270.135 247.636 273.414 246.854C276.693 246.073 280.599 248.733 281.534 252.489C282.472 256.244 281.878 261.539 287.501 264.358C293.124 267.174 292.701 279.249 292.701 279.249H269.352V279.246Z" fill="#FAFBFD"/>
<path d="M293.187 279.749H268.951L268.863 279.355C268.811 279.118 267.615 273.502 270.764 267.935C270.914 267.418 272.228 262.577 269.701 258.216C268.272 255.749 268.086 252.858 269.189 250.283C270.054 248.264 271.629 246.764 273.298 246.365C276.868 245.513 281.025 248.372 282.023 252.366C282.226 253.182 282.356 254.044 282.494 254.958C283.001 258.322 283.525 261.801 287.727 263.906C293.571 266.832 293.222 278.757 293.204 279.264L293.187 279.749ZM269.776 278.744H292.209C292.209 276.498 291.931 267.136 287.28 264.805C282.612 262.466 282.023 258.558 281.504 255.106C281.371 254.217 281.243 253.378 281.053 252.607C280.183 249.12 276.598 246.608 273.534 247.339C272.168 247.666 270.857 248.944 270.114 250.678C269.137 252.959 269.305 255.521 270.573 257.709C273.464 262.695 271.782 268.061 271.709 268.287L271.666 268.382C269.144 272.806 269.578 277.393 269.778 278.742L269.776 278.744Z" fill="#0C2841"/>
<path d="M281.08 279.533C276.42 269.337 272.955 246.997 272.92 246.771L273.91 246.618C273.945 246.842 277.39 269.045 281.993 279.113L281.08 279.533Z" fill="#0C2841"/>
<path d="M279.442 249.197L275.445 259.931L276.385 260.282L280.382 249.548L279.442 249.197Z" fill="#0C2841"/>
<path d="M281.488 254.391L276.872 266.079L277.805 266.449L282.421 254.761L281.488 254.391Z" fill="#0C2841"/>
<path d="M270.323 270.38L269.729 271.19L281.317 279.719L281.91 278.909L270.323 270.38Z" fill="#0C2841"/>
<path d="M269.522 273.919L268.937 274.735L275.777 279.657L276.362 278.841L269.522 273.919Z" fill="#0C2841"/>
<path d="M43.4232 267.079H34.5732V273.632H43.4232V267.079Z" fill="#FAFBFD"/>
<path d="M43.9245 274.135H34.0718V266.576H43.9245V274.135ZM35.0746 273.13H42.9217V267.581H35.0746V273.13Z" fill="#0C2841"/>
<path d="M34.5733 271.891C34.5733 271.891 39.3818 275.546 43.4232 271.891L55.407 278.146C55.9335 278.422 55.7379 279.221 55.1437 279.221H33.9716C33.3047 279.221 32.8158 278.588 32.9863 277.943L34.5733 271.891Z" fill="#0C2841"/>
<path d="M88.5955 267.079H79.7456V273.632H88.5955V267.079Z" fill="#FAFBFD"/>
<path d="M89.0945 274.135H79.2417V266.576H89.0945V274.135ZM80.2445 273.13H88.0916V267.581H80.2445V273.13Z" fill="#0C2841"/>
<path d="M79.7457 271.891C79.7457 271.891 84.5542 275.546 88.5956 271.891L100.579 278.146C101.106 278.422 100.91 279.221 100.316 279.221H79.144C78.4771 279.221 77.9882 278.588 78.1587 277.943L79.7457 271.891Z" fill="#0C2841"/>
<path d="M50.6939 156.488L58.2853 192.304L44.6218 268.904H30.0508C30.0508 268.904 37.1583 197.624 37.3363 196.637C37.5695 195.349 36.8424 145.92 36.875 147.005L50.6939 156.488Z" fill="#FAFBFD"/>
<path d="M45.0404 269.407H29.4966L29.5517 268.854C29.8426 265.943 36.6618 197.542 36.8423 196.547C37.0153 195.334 36.579 162.675 36.4336 151.944L36.3735 147.34C36.3735 147.264 36.3735 147.189 36.3735 147.114V147.021H36.3785C36.401 146.737 36.4963 146.493 36.8598 146.486L37.3562 146.476L37.3637 146.737L51.1375 156.187L51.1802 156.383L58.7916 192.294L45.0379 269.405L45.0404 269.407ZM30.6047 268.402H44.203L57.7737 192.312L50.245 156.787L37.3863 147.965C37.3963 148.839 37.4164 150.244 37.439 151.929C37.7298 173.552 38.0005 195.783 37.8301 196.725C37.6746 197.672 33.0691 243.697 30.6047 268.402Z" fill="#0C2841"/>
<path d="M63.3217 155.757L79.0987 188.953C79.9085 190.659 80.4725 192.473 80.7709 194.339L92.707 268.902H77.1657L57.9817 194.444L38.2837 148.822L63.3242 155.757H63.3217Z" fill="#FAFBFD"/>
<path d="M93.2937 269.407H76.7747L57.5029 194.61L37.4038 148.058L63.6753 155.333L79.55 188.737C80.3824 190.488 80.959 192.347 81.2649 194.261L93.2937 269.407ZM77.5519 268.402H92.1179L80.2771 194.419C79.9863 192.601 79.4372 190.832 78.6475 189.169L62.9683 156.179L39.1588 149.585L58.4556 194.281L58.4656 194.319L77.5544 268.4L77.5519 268.402Z" fill="#0C2841"/>
<path d="M97.3199 141.645V152.351L110.678 141.645L114.077 134.832L117.234 131.669C117.234 131.669 117.72 131.913 117.234 133.373C116.747 134.832 115.777 135.807 115.777 135.807L115.047 137.51C115.047 137.51 116.747 137.266 116.99 138.241C116.99 138.241 118.447 138.728 118.204 139.944C118.204 139.944 118.933 139.944 119.174 140.916L118.444 143.35L115.772 145.541L114.315 145.784L94.7828 164.619C92.3158 166.998 88.2043 165.355 88.0463 161.929L87.3594 147L97.3174 141.647L97.3199 141.645Z" fill="#FAFBFD"/>
<path d="M92.0477 166.24C91.4861 166.24 90.9196 166.132 90.3705 165.913C88.7133 165.252 87.6353 163.733 87.5526 161.949L86.8506 146.704L97.824 140.803V151.303L110.279 141.318L113.666 134.531L117.136 131.054L117.459 131.215C117.665 131.318 118.289 131.788 117.71 133.526C117.266 134.865 116.449 135.814 116.203 136.081L115.817 136.982C116.441 137.038 117.101 137.264 117.384 137.849C117.946 138.105 118.678 138.673 118.733 139.557C119.099 139.726 119.49 140.09 119.666 140.788L119.698 140.921L118.886 143.634L115.993 146.006L114.556 146.244L95.1364 164.971C94.279 165.8 93.1784 166.235 92.0477 166.235V166.24ZM87.881 147.289L88.5529 161.901C88.6156 163.285 89.4554 164.466 90.7415 164.979C92.0277 165.491 93.4467 165.215 94.442 164.253L114.085 145.31L115.564 145.064L118.013 143.056L118.655 140.914C118.507 140.489 118.247 140.449 118.191 140.444H117.58L117.715 139.844C117.87 139.07 116.845 138.718 116.835 138.716L116.574 138.628L116.507 138.362C116.409 137.967 115.514 137.952 115.12 138.007L114.24 138.13L115.356 135.521L115.424 135.453C115.424 135.453 116.321 134.538 116.76 133.215C116.825 133.021 116.868 132.858 116.898 132.72L114.491 135.131L111.079 141.971L96.8212 153.401V142.489L87.881 147.294V147.289Z" fill="#0C2841"/>
<path d="M81.1719 116.598L89.6232 104.945L97.0165 95.9971L108.647 104.465C108.647 104.465 100.539 122.888 92.5589 117.329L89.5981 122.446L81.1719 116.598Z" fill="#FAFBFD"/>
<path d="M89.7586 123.169L80.4624 116.719L89.2346 104.626L96.9288 95.3164L109.266 104.299L109.103 104.671C108.885 105.168 103.678 116.854 97.3099 118.648C95.7129 119.097 94.1735 118.891 92.7295 118.037L89.7586 123.172V123.169ZM81.8789 116.477L89.4377 121.722L92.3985 116.605L92.8448 116.917C94.181 117.849 95.5524 118.098 97.0391 117.678C102.359 116.181 107.08 106.633 108.018 104.631L97.1018 96.6829L90.0168 105.254L81.8764 116.477H81.8789Z" fill="#0C2841"/>
<path d="M89.4102 99.2376C89.4102 99.2376 82.6061 93.7815 90.1348 88.2301C97.666 82.6786 98.8593 92.0759 98.8593 92.0759C98.8593 92.0759 116.025 97.0522 108.527 107.391C108.527 107.391 106.666 107.542 104.999 107.08L102.798 111.496L101.339 111.436C101.339 111.436 102.126 107.243 99.9524 108.17C97.7788 109.097 97.483 110.886 97.9443 111.973C97.9443 111.973 93.1533 116.51 87.2542 109.456C87.2542 109.456 84.6318 104.789 89.4102 99.2376Z" fill="#0C2841"/>
<path d="M81.2924 114.393H67.6916C67.6916 114.393 45.2283 121.328 42.3126 124.978C40.7281 126.963 43.7692 133.009 46.1459 136.478L36.1201 146.757C46.3188 166.466 66.4756 163.547 66.4756 163.547C68.905 157.463 86.3892 138.485 86.3892 138.485V151.869L99.2605 145.541V130.07C99.2605 127.729 98.0897 125.541 96.1392 124.25L81.2899 114.398L81.2924 114.393Z" fill="#1688FA"/>
<path d="M43.9625 139.429L43.3232 138.655C54.9685 128.982 68.1106 119.075 68.2409 118.977L68.8426 119.78C68.7123 119.878 55.5903 129.771 43.9625 139.429Z" fill="#0C2841"/>
<path d="M328.497 264.89H318.95V274.064H328.497V264.89Z" fill="#FAFBFD"/>
<path d="M328.998 274.566H318.448V264.388H328.998V274.566ZM319.451 273.561H327.995V265.392H319.451V273.561Z" fill="#0C2841"/>
<path d="M333.874 251.431L338.083 258.352L346.174 253.278L341.967 246.354L333.874 251.431Z" fill="#FAFBFD"/>
<path d="M337.918 259.048L333.189 251.268L342.132 245.659L346.86 253.438L337.918 259.048ZM334.561 251.592L338.246 257.656L345.487 253.114L341.801 247.05L334.561 251.592Z" fill="#0C2841"/>
<path d="M292.038 111.747L285.182 114.691L272.2 94.5674L267.547 91.131L262.159 88.6768C262.159 88.6768 261.056 91.0079 263.997 92.4799C266.935 93.9519 267.549 94.811 267.549 94.811C267.549 94.811 265.712 94.9341 265.589 97.0191C265.589 97.0191 264.609 97.2652 264.486 99.104C264.486 99.104 263.017 100.086 263.751 101.312C263.751 101.312 264.854 103.889 267.058 104.625C269.262 105.361 270.488 105.361 270.488 105.361L281.724 124.618C282.79 126.444 285.049 127.183 286.984 126.341L296.574 122.172L292.043 111.742L292.038 111.747Z" fill="#FAFBFD"/>
<path d="M285.325 127.193C283.708 127.193 282.148 126.352 281.288 124.874L270.187 105.851C269.683 105.809 268.552 105.658 266.895 105.105C264.614 104.344 263.446 101.87 263.3 101.546C262.631 100.39 263.378 99.3477 264.002 98.8403C264.148 97.5039 264.727 96.9286 265.113 96.6925C265.271 95.5546 265.915 94.914 266.552 94.59C266.06 94.2157 265.203 93.6505 263.769 92.9321C260.43 91.2591 261.691 88.4909 261.703 88.4632L261.914 88.0161L267.84 90.7265L272.569 94.2157L285.37 114.06L292.297 111.086L297.228 122.435L287.18 126.804C286.578 127.065 285.946 127.191 285.325 127.191V127.193ZM262.473 89.3726C262.37 90.0182 262.488 91.1636 264.218 92.0303C267.184 93.5148 267.883 94.4217 267.953 94.5196L268.475 95.2531L267.577 95.3134C267.437 95.326 266.178 95.4742 266.086 97.0492L266.063 97.4185L265.704 97.5089C265.704 97.5089 265.075 97.7375 264.98 99.1417L264.962 99.3879L264.757 99.526C264.649 99.5989 263.704 100.275 264.173 101.058L264.203 101.119C264.213 101.141 265.248 103.5 267.206 104.153C269.287 104.849 270.465 104.864 270.478 104.864H270.764L270.909 105.113L282.146 124.37C283.081 125.975 285.072 126.625 286.774 125.887L295.902 121.918L291.77 112.407L284.981 115.321L271.819 94.919L267.281 91.5681L262.463 89.3751L262.473 89.3726Z" fill="#0C2841"/>
<path d="M337.106 154.202L331.716 191.997L330.738 268.809H313.101L314.327 192.241L318.491 152.486L337.106 154.202Z" fill="#0C2841"/>
<path d="M304.529 150.768L299.304 187.858C298.878 190.874 299.372 193.949 300.721 196.68L330.003 256.048L342.739 246.231L318.491 192.731L331.838 152.361L304.529 150.766V150.768Z" fill="#0C2841"/>
<path d="M328.496 271.062C328.496 271.062 323.309 275.006 318.949 271.062L306.02 277.812C305.451 278.108 305.662 278.972 306.304 278.972H329.146C329.865 278.972 330.392 278.289 330.209 277.591L328.496 271.062Z" fill="#0C2841"/>
<path d="M318.313 109.218L319.195 97.0471C319.195 97.0471 307.836 99.3556 312.867 83.0328C316.726 70.5155 327.995 80.2671 327.995 80.2671C327.995 80.2671 330.645 82.038 329.098 95.756L329.429 110.029L318.31 109.215L318.313 109.218Z" fill="#FAFBFD"/>
<path d="M329.945 110.571L317.776 109.682L318.651 97.6272C317.41 97.7403 314.665 97.7227 312.817 95.6779C310.653 93.284 310.511 88.9785 312.388 82.8869C313.494 79.2998 315.314 77.1194 317.801 76.4035C322.539 75.0395 327.91 79.5334 328.308 79.875C328.724 80.1915 331.083 82.6005 329.602 95.7809L329.945 110.571ZM318.849 108.753L328.917 109.489L328.599 95.7357L328.604 95.7005C330.051 82.8618 327.744 80.7015 327.719 80.6864L327.669 80.6487C327.616 80.6035 322.374 76.1322 318.074 77.3706C315.936 77.986 314.346 79.9428 313.346 83.1833C311.606 88.8277 311.679 92.9147 313.557 94.9997C315.567 97.2328 319.062 96.5647 319.097 96.5571L319.744 96.429L319.696 97.0871L318.849 108.758V108.753Z" fill="#0C2841"/>
<path d="M289.098 111.257L294.732 125.246L304.652 121.443L305.264 127.946L302.814 155.679C302.814 155.679 310.09 163.195 318.363 160.683C331.061 156.827 338.329 159.884 338.329 159.884L338.452 141.074C338.452 141.074 347.392 138.743 347.638 137.271C347.869 135.879 346.131 118.049 333.744 106.153C332.383 104.846 330.618 104.042 328.745 103.826L313.632 102.083C312.08 101.905 310.511 102.131 309.074 102.744L289.101 111.257H289.098Z" fill="white"/>
<path d="M314.853 161.703C308.041 161.703 302.716 156.294 302.456 156.026L302.295 155.86L304.76 127.944L304.213 122.144L294.451 125.887L288.449 110.983L308.876 102.277C310.391 101.631 312.053 101.39 313.687 101.578L328.8 103.322C330.798 103.553 332.676 104.427 334.09 105.786C346.735 117.931 348.35 136.03 348.132 137.349C348.032 137.952 347.357 138.761 343.113 140.198C341.398 140.778 339.686 141.258 338.951 141.459L338.826 160.635L338.136 160.344C338.066 160.314 330.856 157.41 318.508 161.16C317.257 161.539 316.031 161.703 314.853 161.703ZM303.336 155.483C304.434 156.531 310.997 162.391 318.218 160.201C328.88 156.963 335.717 158.512 337.833 159.176L337.953 140.685L338.327 140.587C342.371 139.532 346.881 137.909 347.147 137.176C347.232 136.663 346.936 132.031 344.948 125.804C343.226 120.411 339.823 112.684 333.4 106.514C332.144 105.309 330.472 104.53 328.69 104.324L313.577 102.581C312.115 102.412 310.626 102.628 309.272 103.206L289.75 111.526L295.015 124.601L305.091 120.737L305.77 127.944L303.338 155.483H303.336Z" fill="#0C2841"/>
<path d="M345.206 251.245C345.206 251.245 342.897 257.347 337.116 256.319L329.732 268.912C329.406 269.467 330.043 270.085 330.587 269.743L349.947 257.601C350.556 257.219 350.641 256.36 350.117 255.865L345.208 251.243L345.206 251.245Z" fill="#0C2841"/>
<path d="M338.953 141.075H337.951C337.951 126.59 334.335 114.347 334.298 114.224L335.258 113.935C335.296 114.058 338.953 126.445 338.953 141.075Z" fill="#0C2841"/>
<path d="M318.613 83.1582L318.859 87.5768H320.574C320.574 87.5768 321.767 83.226 324.738 86.1047C325.26 86.6096 325.718 88.0691 325.227 90.031C325.227 90.031 326.26 92.4776 329 92.8193C329 92.8193 330.083 92.4776 330.372 92.239C333.245 89.8627 336.526 80.6512 332.086 77.0239C332.086 77.0239 323.515 66.7172 313.757 72.6631C311.29 74.1653 310.042 79.4781 318.613 83.1582Z" fill="#0C2841"/>
<path d="M367 278.995H12V280H367V278.995Z" fill="#0C2841"/>
</g>
<defs>
<clipPath id="clip0_521_12710">
<rect width="355" height="262" fill="white" transform="translate(12 18)"/>
</clipPath>
</defs>
</svg>
