<svg width="64" height="64" viewBox="0 0 64 64" fill="none" xmlns="http://www.w3.org/2000/svg">
<path fill-rule="evenodd" clip-rule="evenodd" d="M19.3295 43.7066C20.0685 44.5276 20.002 45.7922 19.181 46.5311L12.5969 52.4572C11.836 53.1421 10.6807 53.1418 9.92018 52.4565L6.65127 49.5113C5.83065 48.7719 5.76478 47.5073 6.50414 46.6867C7.24351 45.8661 8.50812 45.8002 9.32874 46.5396L11.2596 48.2792L16.505 43.5581C17.326 42.8191 18.5906 42.8856 19.3295 43.7066Z" fill="#0C8DC0"/>
<path fill-rule="evenodd" clip-rule="evenodd" d="M19.3256 27.6996C20.0648 28.5204 19.9986 29.785 19.1778 30.5241L12.5973 36.4502C11.8364 37.1354 10.6809 37.1352 9.92018 36.4498L6.65127 33.5046C5.83065 32.7652 5.76478 31.5006 6.50414 30.68C7.24351 29.8594 8.50812 29.7935 9.32874 30.5329L11.2592 32.2722L16.5011 27.5517C17.3219 26.8126 18.5865 26.8788 19.3256 27.6996Z" fill="#0C8DC0"/>
<path fill-rule="evenodd" clip-rule="evenodd" d="M27.3322 49.3415C27.3322 48.2369 28.2277 47.3415 29.3322 47.3415H56.01C57.1146 47.3415 58.01 48.2369 58.01 49.3415C58.01 50.4461 57.1146 51.3415 56.01 51.3415H29.3322C28.2277 51.3415 27.3322 50.4461 27.3322 49.3415Z" fill="#0C8DC0"/>
<path fill-rule="evenodd" clip-rule="evenodd" d="M27.3322 33.3348C27.3322 32.2303 28.2277 31.3348 29.3322 31.3348H56.01C57.1146 31.3348 58.01 32.2303 58.01 33.3348C58.01 34.4394 57.1146 35.3348 56.01 35.3348H29.3322C28.2277 35.3348 27.3322 34.4394 27.3322 33.3348Z" fill="#0C8DC0"/>
<path fill-rule="evenodd" clip-rule="evenodd" d="M19.3256 11.6929C20.0648 12.5137 19.9986 13.7783 19.1778 14.5175L12.5973 20.4435C11.8364 21.1287 10.6809 21.1286 9.92018 20.4432L6.65127 17.4979C5.83065 16.7586 5.76478 15.494 6.50414 14.6733C7.24351 13.8527 8.50812 13.7869 9.32874 14.5262L11.2592 16.2656L16.5011 11.5451C17.3219 10.8059 18.5865 10.8721 19.3256 11.6929Z" fill="#0C8DC0"/>
<path fill-rule="evenodd" clip-rule="evenodd" d="M27.3322 17.3282C27.3322 16.2236 28.2277 15.3282 29.3322 15.3282H56.01C57.1146 15.3282 58.01 16.2236 58.01 17.3282C58.01 18.4327 57.1146 19.3282 56.01 19.3282H29.3322C28.2277 19.3282 27.3322 18.4327 27.3322 17.3282Z" fill="#0C8DC0"/>
</svg>
