<svg width="18" height="17" viewBox="0 0 18 17" fill="none" xmlns="http://www.w3.org/2000/svg">
<path d="M4.52477 0.267696C5.18857 -0.0848022 5.9833 -0.0891122 6.65124 0.255489L16.7025 5.44348C17.1843 5.69212 17.4889 6.18714 17.4927 6.72928C17.4963 7.27146 17.1988 7.77129 16.7204 8.02649L12.9688 10.0276C12.346 10.3598 11.6073 10.385 10.966 10.1025L10.8391 10.0423L0.789421 4.85266C0.337709 4.61947 0.0422688 4.16907 0.00410204 3.66695L3.3033e-05 3.56604C-0.00360725 3.02382 0.293868 2.52402 0.772331 2.26884L4.52396 0.26851L4.52477 0.267696ZM6.07751 1.36633C5.77382 1.20972 5.41249 1.21177 5.11071 1.37203L1.36071 3.37235C1.29226 3.40886 1.24951 3.48029 1.25003 3.5579C1.2507 3.63535 1.29433 3.7063 1.36315 3.74182L11.412 8.93143C11.7163 9.08831 12.0783 9.08526 12.3804 8.92411L16.132 6.92378C16.2004 6.88733 16.2431 6.81572 16.2427 6.73824C16.2422 6.66071 16.1984 6.58993 16.1296 6.55432L6.07751 1.36633Z" fill="#333333"/>
<path d="M10.9685 0.194454C11.5658 -0.0687687 12.2477 -0.0645506 12.8418 0.205847L12.968 0.267696L12.9688 0.26851L16.7204 2.26884C17.169 2.50811 17.4581 2.96245 17.4895 3.46512L17.4927 3.56604C17.489 4.10824 17.1844 4.60316 16.7025 4.85184L16.7033 4.85266L6.65368 10.0423C5.98454 10.3873 5.18824 10.3819 4.52396 10.0276L0.772331 8.02648C0.293868 7.7713 -0.00360725 7.2715 3.3033e-05 6.72928C0.00380345 6.1873 0.307849 5.6922 0.789421 5.44348L10.8415 0.255489L10.9685 0.194454ZM12.3812 1.37121C12.0795 1.21113 11.718 1.2097 11.4144 1.36633L1.36315 6.55432C1.29425 6.5899 1.25056 6.66065 1.25003 6.73824C1.24963 6.81572 1.29235 6.88733 1.36071 6.92378L5.11234 8.92411C5.41423 9.08515 5.77577 9.08805 6.07995 8.93143L16.1296 3.74182L16.176 3.70845C16.2172 3.66995 16.2422 3.61594 16.2427 3.5579C16.2432 3.48035 16.2004 3.40888 16.132 3.37235L12.3812 1.37121Z" fill="#333333"/>
<path d="M2.20631 11.6933V8.41204C2.20631 8.06686 2.48613 7.78704 2.83131 7.78704C3.17649 7.78704 3.45631 8.06686 3.45631 8.41204V11.6933C3.45631 12.0784 3.66917 12.4326 4.00888 12.6137L8.26019 14.8834L8.37737 14.9371C8.65736 15.0444 8.97255 15.0264 9.24082 14.8834L13.4921 12.6137C13.8318 12.4326 14.0447 12.0784 14.0447 11.6933V8.41204C14.0447 8.06686 14.3245 7.78704 14.6697 7.78704C15.0148 7.7871 15.2947 8.0669 15.2947 8.41204V11.6933C15.2947 12.5399 14.8277 13.3171 14.0805 13.7156L14.0813 13.7164L9.8292 15.9861C9.19714 16.3231 8.44641 16.3445 7.79957 16.0496L7.67181 15.9861L3.41969 13.7164C2.67285 13.3179 2.20631 12.5397 2.20631 11.6933Z" fill="#333333"/>
<path d="M8.1211 15.6308V8.25614C8.1211 7.91102 8.401 7.63123 8.7461 7.63114C9.09128 7.63114 9.3711 7.91096 9.3711 8.25614V15.6308C9.3711 15.976 9.09128 16.2558 8.7461 16.2558C8.401 16.2557 8.1211 15.9759 8.1211 15.6308Z" fill="#333333"/>
</svg>
