<svg width="17" height="18" viewBox="0 0 17 18" fill="none" xmlns="http://www.w3.org/2000/svg">
<path d="M8.13334 10.6083C8.59167 10.6083 8.96667 10.2333 8.96667 9.775C8.96667 9.31667 8.59167 8.94167 8.13334 8.94167C7.90834 8.94167 7.69999 9.025 7.54166 9.18333C7.38332 9.34167 7.30001 9.55 7.30001 9.775C7.30001 10.2333 7.67501 10.6083 8.13334 10.6083Z" fill="#333333"/>
<path d="M8.13334 13.9417C8.59167 13.9417 8.96667 13.5667 8.96667 13.1083C8.96667 12.65 8.59167 12.275 8.13334 12.275C7.90834 12.275 7.69999 12.3583 7.54166 12.5167C7.38332 12.675 7.30001 12.8833 7.30001 13.1083C7.30001 13.5667 7.67501 13.9417 8.13334 13.9417Z" fill="#333333"/>
<path d="M12.3 10.6083C12.7583 10.6083 13.1333 10.2333 13.1333 9.775C13.1333 9.31667 12.7583 8.94167 12.3 8.94167C12.075 8.94167 11.8667 9.025 11.7083 9.18333C11.55 9.34167 11.4667 9.55 11.4667 9.775C11.4667 10.2333 11.8417 10.6083 12.3 10.6083Z" fill="#333333"/>
<path d="M3.96667 10.6083C4.42501 10.6083 4.80001 10.2333 4.80001 9.775C4.80001 9.31667 4.42501 8.94167 3.96667 8.94167C3.74167 8.94167 3.53332 9.025 3.37499 9.18333C3.21666 9.34167 3.13334 9.55 3.13334 9.775C3.13334 10.2333 3.50834 10.6083 3.96667 10.6083Z" fill="#333333"/>
<path d="M13.9583 1.66667H12.0833V0.625C12.0833 0.283333 11.8 0 11.4583 0C11.1167 0 10.8333 0.283333 10.8333 0.625V1.66667H5.41667V0.625C5.41667 0.283333 5.13333 0 4.79167 0C4.45 0 4.16667 0.283333 4.16667 0.625V1.66667H2.29167C1.025 1.66667 0 2.69167 0 3.95833V14.7917C0 16.0583 1.025 17.0833 2.29167 17.0833H13.9583C15.225 17.0833 16.25 16.0583 16.25 14.7917V3.95833C16.25 2.69167 15.225 1.66667 13.9583 1.66667ZM15 14.7917C15 15.3667 14.5333 15.8333 13.9583 15.8333H2.29167C1.71667 15.8333 1.25 15.3667 1.25 14.7917V7.08333H15V14.7917ZM15 5.83333H1.25V3.95833C1.25 3.38333 1.71667 2.91667 2.29167 2.91667H4.16667V3.95833C4.16667 4.3 4.45 4.58333 4.79167 4.58333C5.13333 4.58333 5.41667 4.3 5.41667 3.95833V2.91667H10.8333V3.95833C10.8333 4.3 11.1167 4.58333 11.4583 4.58333C11.8 4.58333 12.0833 4.3 12.0833 3.95833V2.91667H13.9583C14.5333 2.91667 15 3.38333 15 3.95833V5.83333Z" fill="#333333"/>
<path d="M3.96667 13.9417C4.42501 13.9417 4.80001 13.5667 4.80001 13.1083C4.80001 12.65 4.42501 12.275 3.96667 12.275C3.74167 12.275 3.53332 12.3583 3.37499 12.5167C3.21666 12.675 3.13334 12.8833 3.13334 13.1083C3.13334 13.5667 3.50834 13.9417 3.96667 13.9417Z" fill="#333333"/>
</svg>
