<svg width="20" height="20" viewBox="0 0 20 20" fill="none" xmlns="http://www.w3.org/2000/svg">
<path d="M10.1416 11.8583C10.6 11.8583 10.975 11.4833 10.975 11.025C10.975 10.5667 10.6 10.1917 10.1416 10.1917C9.91664 10.1917 9.70829 10.275 9.54996 10.4333C9.39162 10.5917 9.30831 10.8 9.30831 11.025C9.30831 11.4833 9.68331 11.8583 10.1416 11.8583Z" fill="#333333"/>
<path d="M10.1416 15.1917C10.6 15.1917 10.975 14.8167 10.975 14.3583C10.975 13.9 10.6 13.525 10.1416 13.525C9.91664 13.525 9.70829 13.6083 9.54996 13.7667C9.39162 13.925 9.30831 14.1333 9.30831 14.3583C9.30831 14.8167 9.68331 15.1917 10.1416 15.1917Z" fill="#333333"/>
<path d="M14.3083 11.8583C14.7666 11.8583 15.1416 11.4833 15.1416 11.025C15.1416 10.5667 14.7666 10.1917 14.3083 10.1917C14.0833 10.1917 13.875 10.275 13.7166 10.4333C13.5583 10.5917 13.475 10.8 13.475 11.025C13.475 11.4833 13.85 11.8583 14.3083 11.8583Z" fill="#333333"/>
<path d="M5.97498 11.8583C6.43331 11.8583 6.80831 11.4833 6.80831 11.025C6.80831 10.5667 6.43331 10.1917 5.97498 10.1917C5.74998 10.1917 5.54162 10.275 5.38329 10.4333C5.22496 10.5917 5.14164 10.8 5.14164 11.025C5.14164 11.4833 5.51664 11.8583 5.97498 11.8583Z" fill="#333333"/>
<path d="M15.9666 2.91667H14.0916V1.875C14.0916 1.53333 13.8083 1.25 13.4666 1.25C13.125 1.25 12.8416 1.53333 12.8416 1.875V2.91667H7.42497V1.875C7.42497 1.53333 7.14163 1.25 6.79997 1.25C6.4583 1.25 6.17497 1.53333 6.17497 1.875V2.91667H4.29997C3.0333 2.91667 2.0083 3.94167 2.0083 5.20833V16.0417C2.0083 17.3083 3.0333 18.3333 4.29997 18.3333H15.9666C17.2333 18.3333 18.2583 17.3083 18.2583 16.0417V5.20833C18.2583 3.94167 17.2333 2.91667 15.9666 2.91667ZM17.0083 16.0417C17.0083 16.6167 16.5416 17.0833 15.9666 17.0833H4.29997C3.72497 17.0833 3.2583 16.6167 3.2583 16.0417V8.33333H17.0083V16.0417ZM17.0083 7.08333H3.2583V5.20833C3.2583 4.63333 3.72497 4.16667 4.29997 4.16667H6.17497V5.20833C6.17497 5.55 6.4583 5.83333 6.79997 5.83333C7.14163 5.83333 7.42497 5.55 7.42497 5.20833V4.16667H12.8416V5.20833C12.8416 5.55 13.125 5.83333 13.4666 5.83333C13.8083 5.83333 14.0916 5.55 14.0916 5.20833V4.16667H15.9666C16.5416 4.16667 17.0083 4.63333 17.0083 5.20833V7.08333Z" fill="#333333"/>
<path d="M5.97498 15.1917C6.43331 15.1917 6.80831 14.8167 6.80831 14.3583C6.80831 13.9 6.43331 13.525 5.97498 13.525C5.74998 13.525 5.54162 13.6083 5.38329 13.7667C5.22496 13.925 5.14164 14.1333 5.14164 14.3583C5.14164 14.8167 5.51664 15.1917 5.97498 15.1917Z" fill="#333333"/>
</svg>
