<svg width="396" height="292" viewBox="0 0 396 292" fill="none" xmlns="http://www.w3.org/2000/svg">
<g clip-path="url(#clip0_114_3059)">
<path d="M298.398 229.848H295.602V227.049H294.483V229.848H291.687V230.968H294.483V233.768H295.602V230.968H298.398V229.848Z" fill="#0C2841"/>
<path d="M109.068 201.013V198.213H107.949V201.013H105.153V202.132H107.949V204.932H109.068V202.132H111.865V201.013H109.068Z" fill="#0C2841"/>
<path d="M77.1865 29.9559H74.3899V27.1562H73.2712V29.9559H70.4746V31.0757H73.2712V33.8753H74.3899V31.0757H77.1865V29.9559Z" fill="#0C2841"/>
<path d="M126.687 220.61C124.528 220.61 122.771 218.852 122.771 216.69C122.771 214.529 124.528 212.771 126.687 212.771C128.846 212.771 130.602 214.529 130.602 216.69C130.602 218.852 128.846 220.61 126.687 220.61ZM126.687 213.891C125.146 213.891 123.89 215.148 123.89 216.69C123.89 218.233 125.146 219.49 126.687 219.49C128.228 219.49 129.483 218.233 129.483 216.69C129.483 215.148 128.228 213.891 126.687 213.891Z" fill="#0C2841"/>
<path d="M261.204 9.23858H258.407V6.43896H257.288V9.23858H254.492V10.3584H257.288V13.158H258.407V10.3584H261.204V9.23858Z" fill="#0C2841"/>
<path d="M282.178 7.83893C280.019 7.83893 278.263 6.08077 278.263 3.91946C278.263 1.75816 280.019 0 282.178 0C284.337 0 286.093 1.75816 286.093 3.91946C286.093 6.08077 284.337 7.83893 282.178 7.83893ZM282.178 1.11985C280.637 1.11985 279.381 2.37687 279.381 3.91946C279.381 5.46205 280.637 6.71908 282.178 6.71908C283.719 6.71908 284.975 5.46205 284.975 3.91946C284.975 2.37687 283.719 1.11985 282.178 1.11985Z" fill="#0C2841"/>
<path d="M362.572 41.3589C362.572 41.3001 362.592 35.4321 368.708 35.3705C373.776 35.3201 374.307 30.7791 374.326 30.5859L375.439 30.7007C375.434 30.7567 374.774 36.4287 368.719 36.4875C363.733 36.5379 363.691 41.1489 363.691 41.3477L362.572 41.3561V41.3589Z" fill="#0C2841"/>
<path d="M39.2897 69.3547L38.1711 69.3463L38.7304 69.3519H38.1711C38.1711 69.1532 38.1291 64.5394 33.1455 64.489C27.0909 64.4302 26.4309 58.7582 26.4253 58.7022L27.5383 58.5874C27.5607 58.7806 28.1144 63.3216 33.1567 63.3719C39.2701 63.4335 39.2925 69.2987 39.2925 69.3603L39.2897 69.3547Z" fill="#0C2841"/>
<path d="M305.717 24.0767H109.859C103.63 24.0767 98.5806 29.1317 98.5806 35.3675V158.086C98.5806 164.322 103.63 169.377 109.859 169.377H305.717C311.946 169.377 316.996 164.322 316.996 158.086V35.3675C316.996 29.1317 311.946 24.0767 305.717 24.0767Z" fill="white"/>
<path d="M305.717 169.937H109.859C103.332 169.937 98.021 164.62 98.021 158.086V35.3674C98.021 28.8331 103.332 23.5166 109.859 23.5166H305.717C312.244 23.5166 317.555 28.8331 317.555 35.3674V158.086C317.555 164.62 312.244 169.937 305.717 169.937ZM109.859 24.6364C103.95 24.6364 99.1396 29.449 99.1396 35.3674V158.086C99.1396 164.001 103.947 168.817 109.859 168.817H305.717C311.626 168.817 316.436 164.004 316.436 158.086V35.3674C316.436 29.4518 311.629 24.6364 305.717 24.6364H109.859Z" fill="#0C2841"/>
<path d="M141.715 40.6279V91.6285H273.366V70.8666C273.366 70.8666 263.798 57.4368 247.215 74.4781C243.59 78.2044 234.817 88.4706 226.925 78.9911C221.858 72.9019 216.832 55.7963 212.047 51.0089C208.666 47.6242 200.047 45.5217 194.689 55.2979C192.247 59.7521 188.34 71.3761 186.799 74.0274C184.9 77.2973 175.979 83.0533 171.695 73.5766C168.588 66.7008 165.156 50.5582 158.844 46.2692C152.532 41.9801 141.712 40.6279 141.712 40.6279H141.715Z" fill="#1688FA"/>
<path d="M277.983 96.0269H137.548V35.5552H277.983V96.0269ZM138.667 94.907H276.864V36.675H138.667V94.907Z" fill="#0C2841"/>
<path d="M252.268 87.7592C244.074 87.7592 238.825 74.923 235.547 66.9105C234.99 65.5499 234.509 64.374 234.082 63.4278C229.772 53.8895 228.279 51.8206 224.693 50.4039C221.788 49.2561 218.983 49.2701 216.359 50.4487C212.9 52.0025 210.38 55.3481 209.418 57.9741C208.666 60.029 207.992 61.902 207.399 63.5565C204.27 72.269 202.841 76.2472 199.39 80.0491C196.727 82.9803 193.637 84.3773 190.449 84.0945C186.788 83.767 183.642 81.2585 182.272 79.0692C181.058 77.1291 180.194 75.0546 179.195 72.6525C177.419 68.3859 175.21 63.075 169.913 56.5575C162.337 47.2404 142.053 52.0389 141.849 52.0865L141.586 50.9975C142.448 50.7875 162.762 45.9834 170.783 55.8492C176.183 62.4927 178.426 67.8848 180.23 72.2214C181.209 74.5786 182.056 76.6112 183.222 78.4729C184.453 80.4382 187.272 82.6863 190.552 82.9775C193.419 83.2351 196.115 81.9948 198.567 79.296C201.87 75.6565 203.277 71.7454 206.353 63.1786C206.946 61.524 207.62 59.6511 208.375 57.5906C209.418 54.7434 212.153 51.1151 215.909 49.4269C218.818 48.1195 221.913 48.0999 225.113 49.3625C229.215 50.9835 230.933 53.7187 235.111 62.9686C235.547 63.9345 236.031 65.1187 236.593 66.4905C240.103 75.0742 245.981 89.4418 254.922 86.1439C258.907 84.6741 259.833 81.5525 261.776 69.8781C262.277 66.8741 263.555 64.6064 265.471 63.3186C267.484 61.9692 270.183 61.6696 273.5 62.4283L273.251 63.5202C270.247 62.8342 267.842 63.0778 266.094 64.2509C264.005 65.6535 263.191 68.1843 262.881 70.0629C260.853 82.2496 259.844 85.5223 255.308 87.1965C254.256 87.5857 253.244 87.7648 252.276 87.7648L252.268 87.7592Z" fill="#0C2841"/>
<path d="M251.082 132.889L233.237 134.941L238.182 117.122C245.238 119.101 250.518 125.338 251.082 132.889Z" fill="#1688FA"/>
<path d="M233.377 152.579C223.276 152.579 215.059 144.354 215.059 134.241C215.059 124.129 223.276 115.904 233.377 115.904C235.058 115.904 236.724 116.133 238.332 116.581C245.718 118.653 251.068 125.19 251.642 132.847C251.678 133.292 251.697 133.763 251.697 134.241C251.697 144.354 243.481 152.579 233.38 152.579H233.377ZM233.377 117.024C223.894 117.024 216.178 124.748 216.178 134.241C216.178 143.735 223.894 151.459 233.377 151.459C242.86 151.459 250.576 143.735 250.576 134.241C250.576 133.793 250.559 133.354 250.526 132.934C249.989 125.742 244.966 119.605 238.03 117.659C236.52 117.236 234.954 117.021 233.377 117.021V117.024Z" fill="#0C2841"/>
<path d="M291.074 132.889L273.229 134.941L286.602 122.391C289.136 125.221 290.772 128.869 291.074 132.889Z" fill="#1688FA"/>
<path d="M273.369 152.579C263.267 152.579 255.051 144.354 255.051 134.241C255.051 124.129 263.267 115.904 273.369 115.904C275.049 115.904 276.716 116.133 278.324 116.581C281.677 117.519 284.686 119.401 287.019 122.015C288.839 124.048 290.201 126.506 290.959 129.121C291.312 130.327 291.538 131.579 291.63 132.847C291.667 133.292 291.686 133.763 291.686 134.241C291.686 137.822 290.657 141.288 288.708 144.267C285.307 149.471 279.571 152.579 273.369 152.579ZM273.369 117.024C263.885 117.024 256.169 124.748 256.169 134.241C256.169 143.735 263.885 151.459 273.369 151.459C279.194 151.459 284.58 148.542 287.774 143.654C289.603 140.86 290.568 137.604 290.568 134.241C290.568 133.793 290.551 133.354 290.517 132.934C290.428 131.741 290.215 130.565 289.885 129.434C289.175 126.979 287.897 124.672 286.185 122.763C283.993 120.305 281.171 118.541 278.022 117.659C276.512 117.236 274.946 117.021 273.369 117.021V117.024Z" fill="#0C2841"/>
<path d="M116.222 146.762L115.338 146.078L129.209 128.141L140.723 143.324L161.367 122.1L177.012 138.321L192.273 121.408L193.1 122.158L177.039 139.961L161.362 123.707L140.616 145.037L129.198 129.983L116.222 146.762Z" fill="#0C2841"/>
<path d="M192.407 124.303C193.488 124.303 194.364 123.426 194.364 122.344C194.364 121.261 193.488 120.384 192.407 120.384C191.326 120.384 190.449 121.261 190.449 122.344C190.449 123.426 191.326 124.303 192.407 124.303Z" fill="#1688FA"/>
<path d="M177.165 140.401C178.246 140.401 179.123 139.524 179.123 138.441C179.123 137.359 178.246 136.481 177.165 136.481C176.084 136.481 175.208 137.359 175.208 138.441C175.208 139.524 176.084 140.401 177.165 140.401Z" fill="#1688FA"/>
<path d="M161.364 125.143C162.446 125.143 163.322 124.266 163.322 123.183C163.322 122.101 162.446 121.224 161.364 121.224C160.283 121.224 159.407 122.101 159.407 123.183C159.407 124.266 160.283 125.143 161.364 125.143Z" fill="#1688FA"/>
<path d="M140.67 145.86C141.751 145.86 142.627 144.982 142.627 143.9C142.627 142.818 141.751 141.94 140.67 141.94C139.588 141.94 138.712 142.818 138.712 143.9C138.712 144.982 139.588 145.86 140.67 145.86Z" fill="#1688FA"/>
<path d="M129.064 131.162C130.145 131.162 131.021 130.285 131.021 129.202C131.021 128.12 130.145 127.243 129.064 127.243C127.982 127.243 127.106 128.12 127.106 129.202C127.106 130.285 127.982 131.162 129.064 131.162Z" fill="#1688FA"/>
<path d="M116.059 147.82C117.14 147.82 118.017 146.942 118.017 145.86C118.017 144.778 117.14 143.9 116.059 143.9C114.978 143.9 114.102 144.778 114.102 145.86C114.102 146.942 114.978 147.82 116.059 147.82Z" fill="#1688FA"/>
<path d="M196.881 151.739H111.025V115.344H196.881V151.739ZM112.144 150.619H195.763V116.464H112.144V150.619Z" fill="#0C2841"/>
<path d="M291.127 134.242C291.127 137.828 290.067 141.168 288.241 143.959L273.229 134.941L290.422 129.278C290.76 130.437 290.981 131.646 291.074 132.889C291.11 133.337 291.127 133.788 291.127 134.242Z" fill="#0C2841"/>
<path d="M272.29 183.733H182.72C179.575 183.733 177.026 186.285 177.026 189.433V219.949C177.026 223.097 179.575 225.649 182.72 225.649H272.29C275.434 225.649 277.984 223.097 277.984 219.949V189.433C277.984 186.285 275.434 183.733 272.29 183.733Z" fill="white"/>
<path d="M272.289 226.209H182.72C179.271 226.209 176.466 223.401 176.466 219.949V189.433C176.466 185.981 179.271 183.173 182.72 183.173H272.289C275.738 183.173 278.543 185.981 278.543 189.433V219.949C278.543 223.401 275.738 226.209 272.289 226.209ZM182.72 184.293C179.889 184.293 177.585 186.6 177.585 189.433V219.949C177.585 222.782 179.889 225.089 182.72 225.089H272.289C275.12 225.089 277.424 222.782 277.424 219.949V189.433C277.424 186.6 275.12 184.293 272.289 184.293H182.72Z" fill="#0C2841"/>
<path d="M198.193 215.402C203.718 215.402 208.197 210.919 208.197 205.388C208.197 199.858 203.718 195.374 198.193 195.374C192.669 195.374 188.19 199.858 188.19 205.388C188.19 210.919 192.669 215.402 198.193 215.402Z" fill="#1688FA"/>
<path d="M246.812 198.636H214.246V203.759H246.812V198.636Z" fill="#0C2841"/>
<path d="M268.679 206.553H214.246V211.676H268.679V206.553Z" fill="#1688FA"/>
<path d="M139.204 291.043C139.204 291.043 137.344 282.666 141.992 274.522C141.992 274.522 144.549 266.61 140.365 259.398C136.181 252.187 140.365 244.043 145.245 242.878C150.125 241.713 155.936 245.669 157.332 251.254C158.727 256.84 157.564 260.796 165.931 264.984C174.299 269.172 173.949 291.045 173.949 291.045H139.201L139.204 291.043Z" fill="#FAFBFD"/>
<path d="M174.503 291.602H138.754L138.656 291.163C138.578 290.813 136.81 282.518 141.475 274.298C141.679 273.615 143.712 266.285 139.881 259.678C137.783 256.064 137.509 251.825 139.129 248.051C140.393 245.103 142.686 242.911 145.116 242.332C150.335 241.089 156.417 245.274 157.874 251.117C158.148 252.22 158.325 253.242 158.492 254.233C159.186 258.295 159.687 261.229 166.18 264.48C174.763 268.777 174.523 290.144 174.509 291.051L174.5 291.602H174.503ZM139.671 290.482H173.396C173.376 287.089 172.92 269.105 165.685 265.482C158.45 261.859 158.087 258.477 157.393 254.421C157.228 253.452 157.058 252.45 156.792 251.389C155.475 246.108 150.033 242.312 145.379 243.421C143.287 243.919 141.288 245.862 140.161 248.491C138.684 251.937 138.936 255.809 140.851 259.115C145.111 266.459 142.636 274.359 142.527 274.693L142.479 274.799C138.583 281.622 139.38 288.679 139.671 290.482Z" fill="#0C2841"/>
<path d="M156.826 291.392C149.901 276.255 144.747 243.063 144.694 242.729L145.799 242.559C145.849 242.892 150.981 275.93 157.841 290.925L156.823 291.392H156.826Z" fill="#0C2841"/>
<path d="M120.814 264.843C122.822 264.843 124.449 263.214 124.449 261.204C124.449 259.194 122.822 257.564 120.814 257.564C118.806 257.564 117.178 259.194 117.178 261.204C117.178 263.214 118.806 264.843 120.814 264.843Z" fill="#0C2841"/>
<path d="M139.196 291.468C127.635 287.215 121.152 269.69 120.884 268.945L122.198 268.466C122.263 268.643 128.731 286.126 139.68 290.152L139.199 291.465L139.196 291.468Z" fill="#0C2841"/>
<path d="M154.394 246.417L148.448 262.379L149.496 262.77L155.442 246.808L154.394 246.417Z" fill="#0C2841"/>
<path d="M157.429 254.139L150.559 271.518L151.599 271.93L158.469 254.551L157.429 254.139Z" fill="#0C2841"/>
<path d="M115.173 262.192C115.173 262.192 120.814 259.244 126.421 261.028C126.421 261.028 127.953 269.256 122.237 269.869C115.729 270.566 115.173 262.19 115.173 262.19V262.192Z" fill="#1688FA"/>
<path d="M106.319 261.943C108.144 261.943 109.624 260.461 109.624 258.634C109.624 256.806 108.144 255.325 106.319 255.325C104.493 255.325 103.013 256.806 103.013 258.634C103.013 260.461 104.493 261.943 106.319 261.943Z" fill="#0C2841"/>
<path d="M132.464 286.157C132.464 286.157 129.209 281.504 129.676 277.78C130.14 274.057 132.464 272.895 133.396 273.128C134.324 273.36 135.952 273.825 135.255 277.316C134.559 280.807 132.467 286.157 132.467 286.157H132.464Z" fill="#0C2841"/>
<path d="M140.54 278.018L139.877 278.921L157.122 291.602L157.784 290.699L140.54 278.018Z" fill="#0C2841"/>
<path d="M139.345 283.276L138.693 284.186L148.872 291.503L149.525 290.593L139.345 283.276Z" fill="#0C2841"/>
<path d="M187.899 255.56C187.899 255.56 185.575 250.675 187.899 244.392C190.223 238.11 191.85 218.566 177.904 219.495C163.957 220.425 163.029 239.04 164.421 248.581C165.814 258.122 163.725 264.636 161.401 269.986C159.077 275.339 151.638 279.292 152.801 291.16H199.986C199.986 291.16 202.31 272.313 187.899 255.56Z" fill="#FAFBFD"/>
<path d="M200.481 291.72H152.295L152.245 291.216C151.406 282.638 155.01 277.999 157.908 274.27C159.102 272.736 160.229 271.283 160.889 269.765C163.246 264.337 165.238 258.027 163.87 248.662C162.765 241.111 163.266 230.075 168.308 223.826C170.713 220.845 173.93 219.199 177.867 218.938C181.819 218.675 184.884 219.963 186.976 222.771C191.417 228.726 190.083 240.101 188.424 244.588C186.346 250.204 188.128 254.681 188.377 255.261C195.863 263.993 198.775 273.284 199.899 279.547C201.121 286.359 200.567 291.037 200.542 291.233L200.481 291.723V291.72ZM153.316 290.6H199.477C199.703 287.54 200.271 270.798 187.476 255.924L187.429 255.868L187.395 255.801C187.297 255.594 184.996 250.627 187.376 244.196C188.964 239.902 190.267 229.053 186.081 223.437C184.229 220.954 181.494 219.817 177.943 220.053C174.329 220.293 171.382 221.799 169.178 224.529C164.362 230.498 163.906 241.17 164.978 248.499C166.39 258.164 164.222 264.9 161.915 270.21C161.199 271.859 160.03 273.363 158.791 274.956C155.933 278.635 152.7 282.795 153.313 290.6H153.316Z" fill="#0C2841"/>
<path d="M110.447 271.134C110.447 271.134 103.19 271.714 102.037 269.978C100.885 268.242 104.029 266.708 108.154 269.326C108.746 269.701 110.447 271.132 110.447 271.132V271.134Z" fill="#0C2841"/>
<path d="M112.695 274.824C112.695 274.824 105.717 276.905 104.23 275.446C102.742 273.987 105.497 271.834 110.075 273.534C110.732 273.777 112.695 274.822 112.695 274.822V274.824Z" fill="#0C2841"/>
<path d="M128.085 291.597C114.876 281.389 106.372 266.406 106.285 266.257L107.504 265.571C107.588 265.72 115.961 280.462 128.938 290.491L128.082 291.599L128.085 291.597Z" fill="#0C2841"/>
<path d="M177.238 291.146C172.543 265.84 172.794 247.643 173.832 236.833C174.959 225.08 177.174 219.406 177.269 219.17L178.309 219.585C178.287 219.641 176.047 225.394 174.939 237.012C173.916 247.741 173.675 265.806 178.34 290.941L177.241 291.146H177.238Z" fill="#0C2841"/>
<path d="M166.002 229.9L165.159 230.636L173.706 240.451L174.549 239.715L166.002 229.9Z" fill="#0C2841"/>
<path d="M164.644 236.44L163.803 237.179L173.34 248.047L174.181 247.308L164.644 236.44Z" fill="#0C2841"/>
<path d="M101.19 259.533C101.19 259.533 105.992 256.725 111.417 258.475C111.417 258.475 112.813 265.958 107.614 266.515C101.696 267.151 101.19 259.533 101.19 259.533Z" fill="#1688FA"/>
<path d="M189.259 257.432L174.982 275.547L175.861 276.241L190.137 258.125L189.259 257.432Z" fill="#0C2841"/>
<path d="M192.187 261.685L175.865 281.92L176.736 282.623L193.057 262.388L192.187 261.685Z" fill="#0C2841"/>
<path d="M310.799 258.27C312.624 258.27 314.104 256.789 314.104 254.961C314.104 253.133 312.624 251.652 310.799 251.652C308.973 251.652 307.493 253.133 307.493 254.961C307.493 256.789 308.973 258.27 310.799 258.27Z" fill="#0C2841"/>
<path d="M315.648 267.201C315.648 267.201 321.585 262.985 321.356 260.913C321.126 258.842 317.731 259.684 316.249 264.343C316.037 265.012 315.648 267.201 315.648 267.201Z" fill="#0C2841"/>
<path d="M316.288 271.476C316.288 271.476 322.972 268.587 323.179 266.515C323.386 264.443 319.89 264.558 317.471 268.805C317.124 269.416 316.288 271.476 316.288 271.476Z" fill="#0C2841"/>
<path d="M313.654 291.516L312.323 291.085C317.773 274.172 313.564 261.269 313.52 261.14L314.845 260.692C315.027 261.232 319.253 274.138 313.654 291.516Z" fill="#0C2841"/>
<path d="M315.307 252.354C315.307 252.354 309.826 253.287 306.786 258.113C306.786 258.113 310.514 264.748 314.857 261.834C319.801 258.519 315.307 252.352 315.307 252.352V252.354Z" fill="#1688FA"/>
<path d="M287.075 291.16C287.075 291.16 285.682 284.881 289.167 278.777C289.167 278.777 291.082 272.848 287.947 267.442C284.812 262.036 287.947 255.93 291.605 255.059C295.263 254.188 299.62 257.153 300.664 261.339C301.709 265.524 301.047 271.426 307.319 274.567C313.592 277.705 313.12 291.163 313.12 291.163H287.075V291.16Z" fill="#FAFBFD"/>
<path d="M313.662 291.72H286.627L286.53 291.281C286.471 291.017 285.137 284.757 288.649 278.554C288.817 277.977 290.283 272.582 287.464 267.722C285.87 264.973 285.663 261.75 286.893 258.881C287.858 256.63 289.614 254.958 291.477 254.513C295.459 253.564 300.096 256.75 301.209 261.201C301.436 262.111 301.581 263.072 301.735 264.091C302.3 267.839 302.884 271.717 307.571 274.063C314.09 277.324 313.701 290.614 313.682 291.18L313.662 291.72ZM287.548 290.6H312.572C312.572 288.097 312.261 277.663 307.073 275.065C301.866 272.459 301.209 268.103 300.63 264.256C300.482 263.265 300.339 262.33 300.127 261.47C299.156 257.584 295.157 254.785 291.74 255.599C290.215 255.963 288.753 257.388 287.925 259.32C286.834 261.862 287.022 264.718 288.437 267.156C291.661 272.714 289.785 278.693 289.704 278.945L289.656 279.052C286.843 283.982 287.327 289.094 287.55 290.597L287.548 290.6Z" fill="#0C2841"/>
<path d="M300.158 291.479C294.959 280.116 291.094 255.219 291.055 254.967L292.159 254.796C292.198 255.045 296.041 279.791 301.176 291.012L300.158 291.479Z" fill="#0C2841"/>
<path d="M298.33 257.669L293.872 269.633L294.92 270.024L299.378 258.061L298.33 257.669Z" fill="#0C2841"/>
<path d="M300.613 263.458L295.463 276.485L296.504 276.897L301.653 263.871L300.613 263.458Z" fill="#0C2841"/>
<path d="M288.157 281.279L287.495 282.181L300.421 291.686L301.083 290.784L288.157 281.279Z" fill="#0C2841"/>
<path d="M287.264 285.223L286.611 286.132L294.242 291.617L294.894 290.708L287.264 285.223Z" fill="#0C2841"/>
<path d="M35.0527 277.599H25.1807V284.903H35.0527V277.599Z" fill="#FAFBFD"/>
<path d="M35.6123 285.463H24.6216V277.039H35.6123V285.463ZM25.7402 284.343H34.4936V278.159H25.7402V284.343Z" fill="#0C2841"/>
<path d="M25.1809 282.963C25.1809 282.963 30.5448 287.036 35.053 282.963L48.4208 289.934C49.0081 290.242 48.7899 291.132 48.1271 291.132H24.5098C23.7659 291.132 23.2205 290.427 23.4107 289.707L25.1809 282.963Z" fill="#0C2841"/>
<path d="M85.4419 277.599H75.5698V284.903H85.4419V277.599Z" fill="#FAFBFD"/>
<path d="M85.9985 285.463H75.0078V277.039H85.9985V285.463ZM76.1265 284.343H84.8799V278.159H76.1265V284.343Z" fill="#0C2841"/>
<path d="M75.5701 282.963C75.5701 282.963 80.934 287.036 85.4421 282.963L98.8099 289.934C99.3972 290.242 99.1791 291.132 98.5163 291.132H74.8989C74.155 291.132 73.6097 290.427 73.7998 289.707L75.5701 282.963Z" fill="#0C2841"/>
<path d="M43.163 154.346L51.6312 194.263L36.3896 279.634H20.1357C20.1357 279.634 28.0641 200.193 28.2627 199.092C28.5228 197.656 27.7118 142.568 27.7481 143.777L43.163 154.346Z" fill="#FAFBFD"/>
<path d="M36.8566 280.194H19.5176L19.5791 279.578C19.9035 276.333 27.5103 200.1 27.7116 198.991C27.9046 197.639 27.418 161.241 27.2558 149.281L27.1887 144.15C27.1887 144.066 27.1887 143.982 27.1887 143.898V143.794H27.1943C27.2194 143.478 27.3257 143.206 27.7312 143.198L28.285 143.187L28.2933 143.478L43.6579 154.01L43.7055 154.228L52.196 194.252L36.8538 280.191L36.8566 280.194ZM20.7537 279.074H35.9225L51.0605 194.271L42.6623 154.679L28.3185 144.847C28.3297 145.821 28.3521 147.386 28.3772 149.264C28.7016 173.364 29.0037 198.14 28.8135 199.19C28.6401 200.245 23.5027 251.54 20.7537 279.074Z" fill="#0C2841"/>
<path d="M57.2491 153.531L74.8482 190.528C75.7515 192.429 76.3807 194.45 76.7135 196.53L90.0281 279.631H72.692L51.2923 196.648L29.3193 145.801L57.2519 153.531H57.2491Z" fill="#FAFBFD"/>
<path d="M90.6827 280.194H72.2559L50.7583 196.833L28.3379 144.95L57.6436 153.058L75.3517 190.287C76.2802 192.239 76.9234 194.31 77.2646 196.444L90.6827 280.194ZM73.1228 279.074H89.3711L76.1627 196.62C75.8383 194.593 75.2259 192.622 74.3449 190.769L56.8549 154.001L30.2955 146.652L51.821 196.466L51.8322 196.508L73.1256 279.071L73.1228 279.074Z" fill="#0C2841"/>
<path d="M95.1744 137.803V149.735L110.075 137.803L113.867 130.21L117.388 126.686C117.388 126.686 117.93 126.957 117.388 128.584C116.845 130.21 115.763 131.297 115.763 131.297L114.949 133.195C114.949 133.195 116.845 132.923 117.117 134.009C117.117 134.009 118.741 134.552 118.47 135.907C118.47 135.907 119.284 135.907 119.552 136.991L118.739 139.704L115.757 142.145L114.133 142.417L92.3442 163.408C89.5924 166.059 85.0059 164.228 84.8297 160.41L84.0635 143.772L95.1716 137.806L95.1744 137.803Z" fill="#FAFBFD"/>
<path d="M89.293 165.214C88.6665 165.214 88.0345 165.093 87.422 164.85C85.5735 164.113 84.3709 162.42 84.2787 160.432L83.4956 143.441L95.7364 136.865V148.567L109.63 137.439L113.408 129.874L117.279 126L117.639 126.179C117.869 126.293 118.565 126.817 117.919 128.754C117.424 130.247 116.512 131.305 116.238 131.602L115.808 132.607C116.504 132.668 117.24 132.92 117.556 133.572C118.182 133.858 118.999 134.491 119.06 135.476C119.468 135.664 119.905 136.07 120.1 136.848L120.137 136.996L119.231 140.02L116.003 142.663L114.401 142.929L92.7384 163.8C91.782 164.724 90.5543 165.208 89.293 165.208V165.214ZM84.645 144.093L85.3945 160.379C85.4644 161.921 86.4013 163.237 87.8359 163.808C89.2706 164.379 90.8535 164.071 91.9637 162.999L113.875 141.887L115.525 141.613L118.257 139.376L118.973 136.988C118.808 136.515 118.518 136.47 118.456 136.464H117.774L117.925 135.795C118.098 134.933 116.954 134.541 116.943 134.538L116.652 134.44L116.577 134.144C116.468 133.704 115.469 133.687 115.03 133.749L114.049 133.886L115.293 130.977L115.369 130.902C115.369 130.902 116.37 129.883 116.859 128.407C116.932 128.192 116.979 128.01 117.013 127.856L114.328 130.543L110.522 138.167L94.6177 150.905V138.743L84.645 144.099V144.093Z" fill="#0C2841"/>
<path d="M77.1611 109.888L86.5885 96.9005L94.8357 86.9282L107.809 96.3657C107.809 96.3657 98.7649 116.898 89.8633 110.703L86.5605 116.405L77.1611 109.888Z" fill="#FAFBFD"/>
<path d="M86.7395 117.212L76.3696 110.022L86.155 96.5448L94.7378 86.1694L108.5 96.1809L108.318 96.5952C108.075 97.1495 102.266 110.173 95.1629 112.172C93.3814 112.673 91.6643 112.444 90.0534 111.492L86.7395 117.214V117.212ZM77.9497 109.753L86.3815 115.599L89.6843 109.896L90.1821 110.243C91.6727 111.282 93.2024 111.559 94.8608 111.092C100.795 109.423 106.061 98.7817 107.107 96.5504L94.9307 87.6924L87.0275 97.2447L77.9469 109.753H77.9497Z" fill="#0C2841"/>
<path d="M86.351 90.5397C86.351 90.5397 78.761 84.4589 87.1593 78.2718C95.5603 72.0846 96.8915 82.558 96.8915 82.558C96.8915 82.558 116.04 88.104 107.675 99.6273C107.675 99.6273 105.6 99.7952 103.74 99.2801L101.285 104.202L99.6573 104.135C99.6573 104.135 100.535 99.4621 98.1108 100.495C95.6861 101.528 95.3561 103.522 95.8707 104.734C95.8707 104.734 90.5264 109.79 83.946 101.929C83.946 101.929 81.0207 96.7269 86.351 90.5397Z" fill="#0C2841"/>
<path d="M77.2956 107.43H62.124C62.124 107.43 37.0663 115.159 33.8139 119.227C32.0464 121.439 35.4387 128.178 38.0899 132.044L26.9062 143.5C38.2829 165.466 60.7676 162.213 60.7676 162.213C63.4775 155.432 82.9811 134.281 82.9811 134.281V149.197L97.3389 142.145V124.902C97.3389 122.293 96.0329 119.854 93.8571 118.415L77.2928 107.435L77.2956 107.43Z" fill="#1688FA"/>
<path d="M35.6541 135.334L34.9409 134.471C47.9312 123.69 62.591 112.648 62.7364 112.539L63.4076 113.435C63.2622 113.544 48.6247 124.569 35.6541 135.334Z" fill="#0C2841"/>
<path d="M353.049 275.161H342.4V285.385H353.049V275.161Z" fill="#FAFBFD"/>
<path d="M353.609 285.945H341.841V274.601H353.609V285.945ZM342.959 284.825H352.49V275.72H342.959V284.825Z" fill="#0C2841"/>
<path d="M359.048 260.16L363.744 267.873L372.769 262.218L368.076 254.502L359.048 260.16Z" fill="#FAFBFD"/>
<path d="M363.559 268.649L358.285 259.978L368.26 253.727L373.535 262.397L363.559 268.649ZM359.814 260.339L363.925 267.098L372.002 262.036L367.891 255.278L359.814 260.339Z" fill="#0C2841"/>
<path d="M312.381 104.482L304.733 107.763L290.252 85.3351L285.061 81.5053L279.051 78.77C279.051 78.77 277.821 81.3681 281.101 83.0086C284.379 84.6492 285.064 85.6067 285.064 85.6067C285.064 85.6067 283.014 85.7439 282.877 88.0676C282.877 88.0676 281.784 88.3419 281.647 90.3912C281.647 90.3912 280.008 91.4859 280.827 92.8521C280.827 92.8521 282.058 95.7245 284.516 96.5448C286.974 97.3651 288.342 97.3651 288.342 97.3651L300.876 118.827C302.065 120.862 304.584 121.685 306.743 120.747L317.44 116.1L312.387 104.476L312.381 104.482Z" fill="#FAFBFD"/>
<path d="M304.892 121.697C303.088 121.697 301.349 120.759 300.389 119.112L288.006 97.911C287.444 97.8634 286.183 97.6954 284.334 97.0795C281.789 96.2312 280.486 93.4736 280.324 93.1124C279.577 91.8246 280.41 90.6628 281.107 90.0972C281.269 88.6078 281.915 87.9667 282.346 87.7036C282.522 86.4353 283.241 85.7214 283.951 85.3603C283.403 84.9431 282.446 84.3132 280.847 83.5125C277.122 81.648 278.528 78.5628 278.542 78.532L278.777 78.0337L285.388 81.0545L290.663 84.9431L304.942 107.06L312.669 103.745L318.17 116.394L306.962 121.263C306.29 121.554 305.586 121.694 304.892 121.694V121.697ZM279.401 79.5455C279.286 80.265 279.418 81.5416 281.347 82.5075C284.656 84.162 285.436 85.1727 285.514 85.2819L286.096 86.0994L285.095 86.1666C284.938 86.1806 283.534 86.3457 283.431 88.1011L283.406 88.5127L283.006 88.6134C283.006 88.6134 282.304 88.8682 282.198 90.4332L282.178 90.7076L281.949 90.8615C281.828 90.9427 280.774 91.6958 281.297 92.5693L281.331 92.6365C281.342 92.6617 282.497 95.2905 284.681 96.0184C287.002 96.7939 288.317 96.8107 288.33 96.8107H288.649L288.812 97.0879L301.346 118.55C302.389 120.339 304.61 121.064 306.508 120.241L316.691 115.817L312.082 105.218L304.509 108.466L289.827 85.727L284.765 81.9923L279.39 79.5483L279.401 79.5455Z" fill="#0C2841"/>
<path d="M362.653 151.798L356.64 193.921L355.55 279.528H335.875L337.243 194.192L341.888 149.886L362.653 151.798Z" fill="#0C2841"/>
<path d="M326.314 147.971L320.486 189.307C320.01 192.67 320.561 196.096 322.066 199.14L354.73 265.306L368.937 254.365L341.888 194.739L356.778 149.746L326.314 147.968V147.971Z" fill="#0C2841"/>
<path d="M353.05 282.039C353.05 282.039 347.263 286.434 342.4 282.039L327.978 289.562C327.343 289.892 327.578 290.855 328.294 290.855H353.774C354.577 290.855 355.164 290.094 354.96 289.315L353.05 282.039Z" fill="#0C2841"/>
<path d="M341.69 101.663L342.674 88.0986C342.674 88.0986 330.003 90.6714 335.615 72.4795C339.919 58.529 352.49 69.3971 352.49 69.3971C352.49 69.3971 355.446 71.3709 353.721 86.6596L354.09 102.567L341.687 101.66L341.69 101.663Z" fill="#FAFBFD"/>
<path d="M354.666 103.171L341.091 102.18L342.067 88.745C340.683 88.871 337.621 88.8514 335.56 86.5725C333.146 83.9045 332.987 79.106 335.081 72.3169C336.315 68.319 338.345 65.889 341.119 65.0911C346.405 63.5709 352.395 68.5794 352.84 68.9602C353.304 69.3129 355.936 71.9977 354.283 86.6873L354.666 103.171ZM342.288 101.145L353.52 101.965L353.164 86.6369L353.17 86.5977C354.784 72.2889 352.211 69.8812 352.183 69.8644L352.127 69.8224C352.068 69.772 346.22 64.7887 341.424 66.1689C339.039 66.8548 337.266 69.0357 336.15 72.6472C334.209 78.938 334.29 83.493 336.385 85.8166C338.628 88.3055 342.526 87.5608 342.565 87.5524L343.287 87.4096L343.234 88.1431L342.288 101.15V101.145Z" fill="#0C2841"/>
<path d="M309.101 103.936L315.385 119.527L326.451 115.288L327.133 122.536L324.401 153.444C324.401 153.444 332.517 161.821 341.745 159.021C355.91 154.724 364.018 158.131 364.018 158.131L364.155 137.167C364.155 137.167 374.127 134.569 374.401 132.928C374.659 131.378 372.721 111.506 358.903 98.2468C357.384 96.791 355.415 95.8952 353.326 95.6544L336.468 93.7115C334.737 93.5127 332.986 93.7646 331.384 94.4478L309.103 103.936H309.101Z" fill="white"/>
<path d="M337.83 160.158C330.232 160.158 324.292 154.13 324.001 153.831L323.822 153.646L326.571 122.534L325.962 116.069L315.072 120.241L308.376 103.631L331.163 93.9273C332.852 93.2077 334.707 92.939 336.53 93.149L353.388 95.0919C355.617 95.3495 357.711 96.3237 359.289 97.8383C373.395 111.374 375.196 131.546 374.953 133.015C374.841 133.687 374.088 134.589 369.354 136.19C367.441 136.837 365.531 137.372 364.711 137.596L364.572 158.968L363.802 158.643C363.724 158.61 355.681 155.373 341.908 159.553C340.512 159.976 339.145 160.158 337.83 160.158ZM324.983 153.226C326.208 154.393 333.529 160.925 341.583 158.484C353.477 154.875 361.104 156.602 363.464 157.341L363.598 136.733L364.015 136.624C368.526 135.448 373.557 133.64 373.854 132.822C373.949 132.251 373.619 127.089 371.401 120.148C369.48 114.138 365.685 105.526 358.52 98.6502C357.119 97.3064 355.253 96.4385 353.265 96.2089L336.407 94.266C334.776 94.0784 333.115 94.3192 331.605 94.9631L309.828 104.235L315.701 118.807L326.94 114.502L327.698 122.534L324.986 153.226H324.983Z" fill="#0C2841"/>
<path d="M371.689 259.953C371.689 259.953 369.113 266.753 362.664 265.608L354.428 279.643C354.065 280.261 354.775 280.95 355.382 280.569L376.977 267.036C377.657 266.61 377.752 265.653 377.167 265.101L371.692 259.95L371.689 259.953Z" fill="#0C2841"/>
<path d="M364.714 137.167H363.596C363.596 121.025 359.563 107.38 359.521 107.242L360.592 106.92C360.634 107.058 364.714 120.863 364.714 137.167Z" fill="#0C2841"/>
<path d="M342.025 72.6193L342.3 77.5438H344.212C344.212 77.5438 345.544 72.6949 348.858 75.9033C349.439 76.466 349.951 78.0926 349.403 80.2791C349.403 80.2791 350.555 83.0059 353.612 83.3866C353.612 83.3866 354.82 83.0059 355.142 82.7399C358.347 80.0915 362.007 69.8253 357.054 65.7827C357.054 65.7827 347.493 54.2958 336.608 60.9225C333.857 62.5967 332.464 68.5179 342.025 72.6193Z" fill="#0C2841"/>
<path d="M396 290.88H0V292H396V290.88Z" fill="#0C2841"/>
</g>
<defs>
<clipPath id="clip0_114_3059">
<rect width="396" height="292" fill="white"/>
</clipPath>
</defs>
</svg>
