<svg width="174" height="73" viewBox="0 0 174 73" fill="none" xmlns="http://www.w3.org/2000/svg">
<path d="M3.36716 64.5007C3.36716 64.5007 18.1817 79.3151 25.9867 60.9618C31.267 37.6844 53.006 38.7537 53.006 38.7537" stroke="#042F43" stroke-linecap="round" stroke-linejoin="round"/>
<path fill-rule="evenodd" clip-rule="evenodd" d="M69.8546 29.8186L69.4776 48.9163C64.0842 48.8099 56.1252 48.6521 56.3144 39.1031C56.5022 29.5544 64.4626 29.7118 69.8546 29.8186Z" fill="white"/>
<path fill-rule="evenodd" clip-rule="evenodd" d="M69.8546 29.8186L69.4776 48.9163C64.0842 48.8099 56.1252 48.6521 56.3144 39.1031C56.5022 29.5544 64.4626 29.7118 69.8546 29.8186Z" stroke="#0B9CE5" stroke-linecap="round" stroke-linejoin="round"/>
<path d="M89.822 32.8939L83.9737 32.7776" stroke="#042F43" stroke-linecap="round" stroke-linejoin="round"/>
<path d="M95.0758 21.2115L100.188 18.3682" stroke="#042F43" stroke-linecap="round" stroke-linejoin="round"/>
<path d="M67.9923 15.8231L70.8356 20.9351" stroke="#042F43" stroke-linecap="round" stroke-linejoin="round"/>
<path d="M83.8338 18.85L83.9274 13.0012" stroke="#042F43" stroke-linecap="round" stroke-linejoin="round"/>
<path d="M89.6371 42.2293L83.7887 42.113" stroke="#042F43" stroke-linecap="round" stroke-linejoin="round"/>
<path d="M56.8397 43.098L53.4207 43.031L53.5685 35.5927L56.8231 35.6563" stroke="#0B9CE5" stroke-linecap="round" stroke-linejoin="round"/>
<path fill-rule="evenodd" clip-rule="evenodd" d="M67.6168 47.0918L58.2322 38.1612C58.2322 38.1612 58.0265 42.6586 60.4261 45.084C62.8274 47.5104 67.6168 47.0918 67.6168 47.0918Z" fill="#F3F4F6"/>
<rect x="73.0016" y="30.457" width="4.64358" height="17.3416" rx="0.5" fill="#0B9CE5" stroke="#042F43"/>
<path fill-rule="evenodd" clip-rule="evenodd" d="M96.3605 46.9075L96.7375 27.8098C102.131 27.9162 110.09 28.074 109.901 37.623C109.713 47.1717 101.753 47.0143 96.3605 46.9075Z" fill="white"/>
<path d="M169.148 5.9481C169.148 5.9481 146.718 -3.97873 142.3 15.5009C137.019 38.7783 115.28 37.7089 115.28 37.7089" stroke="#042F43" stroke-linecap="round" stroke-linejoin="round"/>
<path fill-rule="evenodd" clip-rule="evenodd" d="M96.9397 46.6438L97.3168 27.5461C102.71 27.6525 110.669 27.8103 110.48 37.3593C110.292 46.908 102.332 46.7506 96.9397 46.6438Z" stroke="#0B9CE5" stroke-linecap="round" stroke-linejoin="round"/>
<path d="M110.867 33.6281L114.286 33.695L114.139 41.1334L110.884 41.0698" stroke="#0B9CE5" stroke-linecap="round" stroke-linejoin="round"/>
<path fill-rule="evenodd" clip-rule="evenodd" d="M98.5983 29.635L107.983 38.5656C107.983 38.5656 108.189 34.0682 105.789 31.6428C103.388 29.2164 98.5983 29.635 98.5983 29.635Z" fill="#F3F4F6"/>
<rect x="89.9323" y="29.021" width="4.64358" height="17.3416" rx="0.5" fill="#0B9CE5" stroke="#042F43"/>
</svg>
