<svg width="62" height="62" viewBox="0 0 62 62" fill="none" xmlns="http://www.w3.org/2000/svg">
<circle cx="31" cy="31" r="31" fill="#FBFAFC"/>
<path d="M43.5 28V24.3426C43.5 23.547 43.1839 22.7839 42.6213 22.2213L38.7787 18.3787C38.2161 17.8161 37.453 17.5 36.6574 17.5H25.5C24.7044 17.5 23.9413 17.8161 23.3787 18.3787C22.8161 18.9413 22.5 19.7044 22.5 20.5V23.5" stroke="#0C2841" stroke-width="1.5" stroke-linecap="round" stroke-linejoin="round"/>
<path d="M25.5 38.5H40.5" stroke="#0C2841" stroke-width="1.5" stroke-linecap="round" stroke-linejoin="round"/>
<path d="M46.5 41.5C46.5 42.2956 46.1839 43.0587 45.6213 43.6213C45.0587 44.1839 44.2956 44.5 43.5 44.5H22.5C21.7044 44.5 20.9413 44.1839 20.3787 43.6213C19.8161 43.0587 19.5 42.2956 19.5 41.5V26.5C19.5 25.7044 19.8161 24.9413 20.3787 24.3787C20.9413 23.8161 21.7044 23.5 22.5 23.5H29.2058C29.4504 23.5 29.6912 23.5598 29.9074 23.6742C30.1235 23.7885 30.3084 23.954 30.446 24.1562L32.6148 27.3437C32.7523 27.5459 32.9373 27.7114 33.1534 27.8258C33.3696 27.9402 33.6104 28 33.855 28H43.5C44.2956 28 45.0587 28.3161 45.6213 28.8787C46.1839 29.4413 46.5 30.2044 46.5 31V41.5Z" stroke="#0C2841" stroke-width="1.5" stroke-linecap="round" stroke-linejoin="round"/>
</svg>
