<svg width="64" height="64" viewBox="0 0 64 64" fill="none" xmlns="http://www.w3.org/2000/svg">
<path d="M31.9995 6.40039C46.1379 6.40039 57.5999 17.8617 57.6001 32C57.6001 46.1385 46.138 57.6006 31.9995 57.6006C17.8612 57.6004 6.3999 46.1384 6.3999 32C6.40011 17.8618 17.8613 6.4006 31.9995 6.40039ZM31.9995 9.47266C19.558 9.47287 9.47238 19.5584 9.47217 32C9.47217 44.4417 19.5578 54.5281 31.9995 54.5283C44.4414 54.5283 54.5278 44.4419 54.5278 32C54.5276 19.5583 44.4412 9.47266 31.9995 9.47266ZM46.0796 22.2168L30.1899 43.5205L17.9194 34.3076L19.9556 31.9199L29.5366 39.1133L43.436 20.4805L46.0796 22.2168Z" fill="#186F07"/>
<path d="M31.9995 6.40039C46.1379 6.40039 57.5999 17.8617 57.6001 32C57.6001 46.1385 46.138 57.6006 31.9995 57.6006C17.8612 57.6004 6.3999 46.1384 6.3999 32C6.40011 17.8618 17.8613 6.4006 31.9995 6.40039ZM31.9995 9.47266C19.558 9.47287 9.47238 19.5584 9.47217 32C9.47217 44.4417 19.5578 54.5281 31.9995 54.5283C44.4414 54.5283 54.5278 44.4419 54.5278 32C54.5276 19.5583 44.4412 9.47266 31.9995 9.47266ZM46.0796 22.2168L30.1899 43.5205L17.9194 34.3076L19.9556 31.9199L29.5366 39.1133L43.436 20.4805L46.0796 22.2168Z" fill="#186F07"/>
</svg>
