<svg width="52" height="52" viewBox="0 0 52 52" fill="none" xmlns="http://www.w3.org/2000/svg">
<path d="M27.9469 40.5325H23.2536L23.2536 19.1992H27.9469L27.9469 40.5325Z" fill="#0072CE"/>
<path d="M23.0401 12.7994C23.0401 11.3856 24.1863 10.2394 25.6001 10.2394C27.014 10.2394 28.1601 11.3856 28.1601 12.7994C28.1601 14.2133 27.014 15.3594 25.6001 15.3594C24.1863 15.3594 23.0401 14.2133 23.0401 12.7994Z" fill="#0072CE"/>
<path fill-rule="evenodd" clip-rule="evenodd" d="M51.2002 25.5992C51.2002 39.6792 39.6802 51.1992 25.6002 51.1992C11.5202 51.1992 0.000196457 39.6792 0.000196457 25.5992C0.000196457 11.5192 11.5202 -0.000780106 25.6002 -0.000780106C39.6802 -0.000780106 51.2002 11.5192 51.2002 25.5992ZM3.41345 25.5991C3.41345 37.9725 13.2268 47.7858 25.6001 47.7858C37.9734 47.7858 47.7868 37.9725 47.7868 25.5991C47.7868 13.2258 37.9734 3.41247 25.6001 3.41247C13.2268 3.41247 3.41345 13.2258 3.41345 25.5991Z" fill="#0072CE"/>
</svg>
