<svg width="20" height="20" viewBox="0 0 20 20" fill="none" xmlns="http://www.w3.org/2000/svg">
<path fill-rule="evenodd" clip-rule="evenodd" d="M10 3.10215C7.16961 3.10215 4.87534 5.39642 4.87534 8.22682V8.37015C4.87534 8.97401 5.06929 9.69899 5.41869 10.5006C5.76524 11.2956 6.24766 12.1277 6.78434 12.9351C7.85778 14.5499 9.1166 16.0188 9.8437 16.8258C9.92841 16.9199 10.0715 16.92 10.1562 16.8259C10.8833 16.0189 12.1422 14.5499 13.2157 12.9351C13.7524 12.1277 14.2348 11.2956 14.5813 10.5006C14.9307 9.69899 15.1247 8.97401 15.1247 8.37015V8.22682C15.1247 5.39642 12.8304 3.10215 10 3.10215ZM3.66968 8.22682C3.66968 4.73055 6.50374 1.89648 10 1.89648C13.4963 1.89648 16.3303 4.73055 16.3303 8.22682V8.37015C16.3303 9.20837 16.0678 10.1077 15.6866 10.9823C15.3024 11.8636 14.78 12.7598 14.2198 13.6025C13.0994 15.2879 11.7966 16.8065 11.052 17.6328C11.052 17.6329 11.0521 17.6328 11.052 17.6328C10.4884 18.2586 9.51159 18.2586 8.94799 17.6328C8.94795 17.6328 8.94803 17.6329 8.94799 17.6328C8.20343 16.8065 6.90058 15.2879 5.78027 13.6025C5.22007 12.7598 4.6976 11.8636 4.31346 10.9823C3.93219 10.1077 3.66968 9.20837 3.66968 8.37015V8.22682Z" fill="#333333"/>
<path fill-rule="evenodd" clip-rule="evenodd" d="M7.73051 8.26432C7.73051 7.01055 8.74624 5.99482 10 5.99482C11.2538 5.99482 12.2695 7.01055 12.2695 8.26432V8.29515C12.2695 9.54892 11.2538 10.5647 10 10.5647C8.74624 10.5647 7.73051 9.54892 7.73051 8.29515C7.73051 8.29 7.73058 8.28486 7.7307 8.27973C7.73058 8.27461 7.73051 8.26947 7.73051 8.26432ZM8.93598 8.27973C8.93611 8.28486 8.93618 8.29 8.93618 8.29515C8.93618 8.88305 9.41211 9.35898 10 9.35898C10.5879 9.35898 11.0638 8.88305 11.0638 8.29515V8.26432C11.0638 7.67642 10.5879 7.20048 10 7.20048C9.41211 7.20048 8.93618 7.67642 8.93618 8.26432C8.93618 8.26947 8.93611 8.27461 8.93598 8.27973Z" fill="#333333"/>
</svg>
