<svg width="20" height="20" viewBox="0 0 20 20" fill="none" xmlns="http://www.w3.org/2000/svg">
<path fill-rule="evenodd" clip-rule="evenodd" d="M3.51678 8.4493C3.86196 8.4493 4.14178 8.72912 4.14178 9.0743V17.4076C4.14178 17.7528 3.86196 18.0326 3.51678 18.0326C3.1716 18.0326 2.89178 17.7528 2.89178 17.4076V9.0743C2.89178 8.72912 3.1716 8.4493 3.51678 8.4493Z" fill="#333333"/>
<path fill-rule="evenodd" clip-rule="evenodd" d="M16.4834 8.4493C16.8286 8.4493 17.1084 8.72912 17.1084 9.0743V17.4076C17.1084 17.7528 16.8286 18.0326 16.4834 18.0326C16.1383 18.0326 15.8584 17.7528 15.8584 17.4076V9.0743C15.8584 8.72912 16.1383 8.4493 16.4834 8.4493Z" fill="#333333"/>
<path fill-rule="evenodd" clip-rule="evenodd" d="M7.52345 13.7035C7.52345 12.3358 8.63244 11.2268 10.0001 11.2268C11.3678 11.2268 12.4768 12.3358 12.4768 13.7035V17.4068C12.4768 17.752 12.197 18.0318 11.8518 18.0318C11.5066 18.0318 11.2268 17.752 11.2268 17.4068V13.7035C11.2268 13.0261 10.6774 12.4768 10.0001 12.4768C9.32279 12.4768 8.77345 13.0261 8.77345 13.7035V17.4068C8.77345 17.752 8.49363 18.0318 8.14845 18.0318C7.80327 18.0318 7.52345 17.752 7.52345 17.4068V13.7035Z" fill="#333333"/>
<path fill-rule="evenodd" clip-rule="evenodd" d="M1.04178 17.4076C1.04178 17.0625 1.3216 16.7826 1.66678 16.7826H18.3334C18.6786 16.7826 18.9584 17.0625 18.9584 17.4076C18.9584 17.7528 18.6786 18.0326 18.3334 18.0326H1.66678C1.3216 18.0326 1.04178 17.7528 1.04178 17.4076Z" fill="#333333"/>
<path fill-rule="evenodd" clip-rule="evenodd" d="M5.05178 3.2168C4.52199 3.2168 4.05987 3.50384 3.84655 3.92394L2.41737 6.73813C2.03978 7.48152 2.58055 8.43999 3.58654 8.44846C4.52431 8.44746 5.09825 7.82587 5.10011 7.27007V7.23096C5.10011 6.88579 5.37994 6.60596 5.72511 6.60596C6.07029 6.60596 6.35011 6.88579 6.35011 7.23096C6.35011 7.81918 6.9372 8.44846 7.86345 8.44846C8.78969 8.44846 9.37678 7.81918 9.37678 7.23096C9.37678 6.88579 9.6566 6.60596 10.0018 6.60596C10.347 6.60596 10.6268 6.88579 10.6268 7.23096C10.6268 7.81918 11.2139 8.44846 12.1401 8.44846C13.0664 8.44846 13.6534 7.81918 13.6534 7.23096C13.6534 6.88579 13.9333 6.60596 14.2784 6.60596C14.6236 6.60596 14.9034 6.88579 14.9034 7.23096V7.27096C14.9034 7.82527 15.4758 8.44746 16.4145 8.44846C17.4205 8.43999 17.9613 7.48164 17.5838 6.73826L16.1538 3.9241C15.9404 3.50399 15.4782 3.2168 14.9484 3.2168H5.05178ZM14.2711 8.80607C13.7488 9.36378 12.9621 9.69846 12.1401 9.69846C11.3143 9.69846 10.524 9.36061 10.0018 8.79814C9.47952 9.36061 8.68928 9.69846 7.86345 9.69846C7.04097 9.69846 6.25378 9.36335 5.73148 8.80498C5.20661 9.3651 4.40926 9.69846 3.58428 9.69846H3.57986C1.75725 9.68558 0.454093 7.8432 1.30286 6.17213M1.30286 6.17213L2.73201 3.35799C3.17036 2.49477 4.07824 1.9668 5.05178 1.9668H14.9484C15.9219 1.9668 16.8298 2.49469 17.2681 3.35783L18.6981 6.172C19.5469 7.84308 18.2438 9.68557 16.4212 9.69845L16.4168 9.69846C15.5928 9.69846 14.7957 9.36567 14.2711 8.80607" fill="#333333"/>
</svg>
